<?xml version="1.0" encoding="UTF-8"?>
<svg xmlns="http://www.w3.org/2000/svg" xmlns:xlink="http://www.w3.org/1999/xlink" width="50px" height="50px" viewBox="0 0 50 50" version="1.1">
<g id="surface1">
<path style=" stroke:none;fill-rule:evenodd;fill:rgb(99.607843%,99.607843%,99.607843%);fill-opacity:1;" d="M -0.0351562 -0.0351562 C 16.628906 -0.0351562 33.296875 -0.0351562 49.964844 -0.0351562 C 49.964844 16.628906 49.964844 33.296875 49.964844 49.964844 C 33.296875 49.964844 16.628906 49.964844 -0.0351562 49.964844 C -0.0351562 33.296875 -0.0351562 16.628906 -0.0351562 -0.0351562 Z M -0.0351562 -0.0351562 "/>
<path style=" stroke:none;fill-rule:evenodd;fill:rgb(1.176471%,1.176471%,1.176471%);fill-opacity:1;" d="M 19.847656 4.933594 C 20.660156 4.878906 21.148438 5.242188 21.308594 6.03125 C 21.242188 6.394531 21.070312 6.699219 20.796875 6.945312 C 16.367188 8.535156 13.128906 11.445312 11.074219 15.679688 C 10.664062 16.117188 10.179688 16.226562 9.613281 16.007812 C 9.179688 15.65625 9.019531 15.207031 9.136719 14.65625 C 11.421875 9.996094 14.992188 6.753906 19.847656 4.933594 Z M 19.847656 4.933594 "/>
<path style=" stroke:none;fill-rule:evenodd;fill:rgb(1.568628%,1.568628%,1.568628%);fill-opacity:1;" d="M 21.382812 9.394531 C 22.542969 9.347656 22.996094 9.886719 22.734375 11 C 22.625 11.109375 22.515625 11.222656 22.40625 11.332031 C 19.199219 12.492188 16.847656 14.597656 15.351562 17.652344 C 14.957031 18.167969 14.457031 18.300781 13.851562 18.054688 C 13.300781 17.574219 13.191406 17.003906 13.523438 16.335938 C 15.265625 13.023438 17.886719 10.707031 21.382812 9.394531 Z M 21.382812 9.394531 "/>
<path style=" stroke:none;fill-rule:evenodd;fill:rgb(1.568628%,1.568628%,1.568628%);fill-opacity:1;" d="M 27.960938 13.925781 C 29.714844 13.734375 30.992188 14.417969 31.796875 15.972656 C 32.082031 16.789062 32.128906 17.617188 31.945312 18.457031 C 34.3125 21.203125 34.96875 24.324219 33.917969 27.8125 C 33.007812 29.746094 32.082031 31.671875 31.140625 33.589844 C 31.132812 35.417969 31.132812 37.246094 31.140625 39.070312 C 30.925781 39.734375 30.472656 40.011719 29.789062 39.914062 C 28.242188 39.242188 26.71875 38.523438 25.21875 37.753906 C 23.359375 39.929688 21.058594 40.578125 18.3125 39.691406 C 15.984375 38.59375 14.789062 36.753906 14.730469 34.175781 C 14.738281 33.703125 14.777344 33.242188 14.839844 32.785156 C 13.402344 32.085938 11.953125 31.414062 10.488281 30.773438 C 9.96875 30.398438 9.785156 29.902344 9.941406 29.277344 C 10.246094 28.945312 10.574219 28.640625 10.929688 28.363281 C 11.925781 27.605469 12.925781 26.851562 13.925781 26.097656 C 14.085938 25.949219 14.230469 25.789062 14.363281 25.621094 C 15.28125 23.664062 16.21875 21.714844 17.179688 19.773438 C 19.226562 16.804688 22.066406 15.355469 25.695312 15.425781 C 26.289062 14.667969 27.046875 14.167969 27.960938 13.925781 Z M 27.960938 13.925781 "/>
<path style=" stroke:none;fill-rule:evenodd;fill:rgb(1.568628%,1.568628%,1.568628%);fill-opacity:1;" d="M 44.773438 24.085938 C 44.695312 24.4375 44.644531 24.804688 44.628906 25.183594 C 44.425781 26.644531 44.0625 28.058594 43.53125 29.421875 C 43.398438 29.5625 43.328125 29.734375 43.3125 29.933594 C 43.175781 30.332031 42.980469 30.695312 42.726562 31.03125 C 41.941406 31.511719 41.34375 31.34375 40.9375 30.519531 C 40.886719 30.300781 40.886719 30.082031 40.9375 29.859375 C 42.210938 27.214844 42.757812 24.410156 42.582031 21.453125 C 42.585938 21.074219 42.535156 20.707031 42.433594 20.359375 C 42.320312 19.230469 42.066406 18.132812 41.667969 17.070312 C 41.597656 16.042969 42.070312 15.589844 43.09375 15.714844 C 43.296875 15.847656 43.480469 16.007812 43.640625 16.191406 C 44.597656 18.734375 44.976562 21.367188 44.773438 24.085938 Z M 44.773438 24.085938 "/>
<path style=" stroke:none;fill-rule:evenodd;fill:rgb(99.215686%,99.215686%,99.215686%);fill-opacity:1;" d="M 32.054688 23.429688 C 32.105469 24.0625 32.128906 24.695312 32.128906 25.328125 C 32.101562 25.898438 32.015625 26.457031 31.871094 27.011719 C 30.859375 29.085938 29.882812 31.179688 28.949219 33.296875 C 28.933594 34.566406 28.898438 35.832031 28.835938 37.097656 C 23.648438 34.625 18.457031 32.152344 13.265625 29.679688 C 13.203125 29.628906 13.15625 29.566406 13.121094 29.496094 C 14.085938 28.726562 15.050781 27.945312 16.007812 27.15625 C 16.9375 25.171875 17.890625 23.199219 18.859375 21.234375 C 20.691406 18.425781 23.285156 17.246094 26.644531 17.691406 C 27.101562 17.476562 27.40625 17.121094 27.558594 16.628906 C 28.070312 16.082031 28.667969 15.972656 29.347656 16.300781 C 29.964844 16.914062 30.023438 17.585938 29.53125 18.3125 C 29.476562 18.585938 29.503906 18.855469 29.605469 19.117188 C 29.996094 19.554688 30.386719 19.992188 30.773438 20.429688 C 31.40625 21.34375 31.835938 22.34375 32.054688 23.429688 Z M 32.054688 23.429688 "/>
<path style=" stroke:none;fill-rule:evenodd;fill:rgb(1.568628%,1.568628%,1.568628%);fill-opacity:1;" d="M 37.902344 21.964844 C 37.910156 21.558594 37.863281 21.167969 37.753906 20.796875 C 37.640625 20.050781 37.460938 19.316406 37.207031 18.605469 C 37.132812 17.8125 37.484375 17.351562 38.265625 17.214844 C 38.640625 17.253906 38.945312 17.425781 39.179688 17.726562 C 39.824219 19.332031 40.128906 21 40.09375 22.734375 C 40.078125 24.710938 39.675781 26.597656 38.890625 28.398438 C 38.609375 29.128906 38.085938 29.410156 37.316406 29.238281 C 36.898438 29.023438 36.675781 28.683594 36.660156 28.214844 C 36.996094 27.238281 37.324219 26.25 37.644531 25.253906 C 37.871094 24.171875 37.953125 23.074219 37.902344 21.964844 Z M 37.902344 21.964844 "/>
<path style=" stroke:none;fill-rule:evenodd;fill:rgb(64.705884%,64.705884%,64.705884%);fill-opacity:1;" d="M 42.433594 20.359375 C 42.535156 20.707031 42.585938 21.074219 42.582031 21.453125 C 42.480469 21.105469 42.429688 20.742188 42.433594 20.359375 Z M 42.433594 20.359375 "/>
<path style=" stroke:none;fill-rule:evenodd;fill:rgb(63.921571%,63.921571%,63.921571%);fill-opacity:1;" d="M 37.753906 20.796875 C 37.863281 21.167969 37.910156 21.558594 37.902344 21.964844 C 37.804688 21.59375 37.757812 21.203125 37.753906 20.796875 Z M 37.753906 20.796875 "/>
<path style=" stroke:none;fill-rule:evenodd;fill:rgb(67.450982%,67.450982%,67.450982%);fill-opacity:1;" d="M 32.054688 23.429688 C 32.15625 23.8125 32.207031 24.214844 32.199219 24.632812 C 32.199219 24.878906 32.175781 25.109375 32.128906 25.328125 C 32.128906 24.695312 32.105469 24.0625 32.054688 23.429688 Z M 32.054688 23.429688 "/>
<path style=" stroke:none;fill-rule:evenodd;fill:rgb(69.411767%,69.411767%,69.411767%);fill-opacity:1;" d="M 44.773438 24.085938 C 44.804688 24.472656 44.753906 24.839844 44.628906 25.183594 C 44.644531 24.804688 44.695312 24.4375 44.773438 24.085938 Z M 44.773438 24.085938 "/>
<path style=" stroke:none;fill-rule:evenodd;fill:rgb(42.352942%,42.352942%,42.352942%);fill-opacity:1;" d="M 43.53125 29.421875 C 43.515625 29.621094 43.441406 29.792969 43.3125 29.933594 C 43.328125 29.734375 43.398438 29.5625 43.53125 29.421875 Z M 43.53125 29.421875 "/>
<path style=" stroke:none;fill-rule:evenodd;fill:rgb(97.647059%,97.647059%,97.647059%);fill-opacity:1;" d="M 16.921875 33.808594 C 18.996094 34.820312 21.066406 35.816406 23.136719 36.804688 C 21.585938 38.132812 19.953125 38.242188 18.238281 37.132812 C 17.261719 36.246094 16.824219 35.136719 16.921875 33.808594 Z M 16.921875 33.808594 "/>
</g>
</svg>
