<?xml version="1.0" encoding="UTF-8"?>
<svg xmlns="http://www.w3.org/2000/svg" xmlns:xlink="http://www.w3.org/1999/xlink" width="50px" height="50px" viewBox="0 0 50 50" version="1.1">
<g id="surface1">
<path style=" stroke:none;fill-rule:evenodd;fill:rgb(99.607843%,99.607843%,99.607843%);fill-opacity:1;" d="M -0.0820312 -0.0820312 C 16.582031 -0.0820312 33.25 -0.0820312 49.917969 -0.0820312 C 49.917969 16.582031 49.917969 33.25 49.917969 49.917969 C 33.25 49.917969 16.582031 49.917969 -0.0820312 49.917969 C -0.0820312 33.25 -0.0820312 16.582031 -0.0820312 -0.0820312 Z M -0.0820312 -0.0820312 "/>
<path style=" stroke:none;fill-rule:evenodd;fill:rgb(90.588236%,95.686275%,99.607843%);fill-opacity:1;" d="M 28.75 1.25 C 28.527344 1.25 28.304688 1.25 28.082031 1.25 C 27.957031 1.121094 27.789062 1.039062 27.582031 1 C 25.664062 0.863281 23.777344 0.890625 21.917969 1.082031 C 21.796875 1.234375 21.632812 1.289062 21.417969 1.25 C 20.851562 1.222656 20.292969 1.277344 19.75 1.417969 C 19.769531 1.3125 19.824219 1.230469 19.917969 1.167969 C 22.605469 0.753906 25.328125 0.644531 28.082031 0.832031 C 28.308594 0.988281 28.53125 1.128906 28.75 1.25 Z M 28.75 1.25 "/>
<path style=" stroke:none;fill-rule:evenodd;fill:rgb(54.11765%,78.431374%,99.607843%);fill-opacity:1;" d="M 21.917969 1.082031 C 23.777344 0.890625 25.664062 0.863281 27.582031 1 C 27.789062 1.039062 27.957031 1.121094 28.082031 1.25 C 27.476562 1.148438 26.867188 1.09375 26.25 1.082031 C 25.359375 1.082031 24.472656 1.082031 23.582031 1.082031 C 23.027344 1.082031 22.472656 1.082031 21.917969 1.082031 Z M 21.917969 1.082031 "/>
<path style=" stroke:none;fill-rule:evenodd;fill:rgb(33.333334%,68.627453%,99.607843%);fill-opacity:1;" d="M 21.917969 1.082031 C 22.472656 1.082031 23.027344 1.082031 23.582031 1.082031 C 22.898438 1.285156 22.175781 1.394531 21.417969 1.417969 C 21.417969 1.359375 21.417969 1.304688 21.417969 1.25 C 21.632812 1.289062 21.796875 1.234375 21.917969 1.082031 Z M 21.917969 1.082031 "/>
<path style=" stroke:none;fill-rule:evenodd;fill:rgb(34.901962%,68.627453%,99.607843%);fill-opacity:1;" d="M 26.25 1.082031 C 26.867188 1.09375 27.476562 1.148438 28.082031 1.25 C 28.304688 1.25 28.527344 1.25 28.75 1.25 C 29.070312 1.203125 29.347656 1.257812 29.582031 1.417969 C 28.582031 1.445312 27.582031 1.417969 26.582031 1.332031 C 26.429688 1.285156 26.320312 1.203125 26.25 1.082031 Z M 26.25 1.082031 "/>
<path style=" stroke:none;fill-rule:evenodd;fill:rgb(50.980395%,76.862746%,99.607843%);fill-opacity:1;" d="M 21.417969 1.25 C 21.417969 1.304688 21.417969 1.359375 21.417969 1.417969 C 21.195312 1.417969 20.972656 1.417969 20.75 1.417969 C 20.425781 1.523438 20.09375 1.582031 19.75 1.582031 C 19.75 1.527344 19.75 1.472656 19.75 1.417969 C 20.292969 1.277344 20.851562 1.222656 21.417969 1.25 Z M 21.417969 1.25 "/>
<path style=" stroke:none;fill-rule:evenodd;fill:rgb(54.901963%,78.431374%,99.607843%);fill-opacity:1;" d="M 29.582031 1.417969 C 29.925781 1.417969 30.261719 1.476562 30.582031 1.582031 C 30.582031 1.640625 30.582031 1.695312 30.582031 1.75 C 30.183594 1.789062 29.851562 1.679688 29.582031 1.417969 Z M 29.582031 1.417969 "/>
<path style=" stroke:none;fill-rule:evenodd;fill:rgb(74.901962%,88.235295%,99.607843%);fill-opacity:1;" d="M 19.082031 1.582031 C 18.84375 1.757812 18.566406 1.867188 18.25 1.917969 C 18.4375 1.632812 18.71875 1.519531 19.082031 1.582031 Z M 19.082031 1.582031 "/>
<path style=" stroke:none;fill-rule:evenodd;fill:rgb(83.137256%,92.156863%,99.607843%);fill-opacity:1;" d="M 30.582031 1.75 C 30.582031 1.695312 30.582031 1.640625 30.582031 1.582031 C 30.921875 1.554688 31.253906 1.585938 31.582031 1.667969 C 31.675781 1.730469 31.730469 1.8125 31.75 1.917969 C 31.40625 1.914062 31.074219 1.859375 30.75 1.75 C 30.695312 1.75 30.640625 1.75 30.582031 1.75 Z M 30.582031 1.75 "/>
<path style=" stroke:none;fill-rule:evenodd;fill:rgb(33.725491%,68.235296%,99.607843%);fill-opacity:1;" d="M 20.75 1.417969 C 20.730469 1.519531 20.675781 1.601562 20.582031 1.667969 C 19.722656 1.738281 18.886719 1.878906 18.082031 2.082031 C 18.082031 2.027344 18.082031 1.972656 18.082031 1.917969 C 18.140625 1.917969 18.195312 1.917969 18.25 1.917969 C 18.566406 1.867188 18.84375 1.757812 19.082031 1.582031 C 19.304688 1.582031 19.527344 1.582031 19.75 1.582031 C 20.09375 1.582031 20.425781 1.523438 20.75 1.417969 Z M 20.75 1.417969 "/>
<path style=" stroke:none;fill-rule:evenodd;fill:rgb(36.470589%,69.803923%,99.607843%);fill-opacity:1;" d="M 30.75 1.75 C 31.074219 1.859375 31.40625 1.914062 31.75 1.917969 C 31.75 1.972656 31.75 2.027344 31.75 2.082031 C 31.320312 2.164062 30.988281 2.050781 30.75 1.75 Z M 30.75 1.75 "/>
<path style=" stroke:none;fill-rule:evenodd;fill:rgb(76.078433%,88.627452%,99.607843%);fill-opacity:1;" d="M 31.75 2.082031 C 31.75 2.027344 31.75 1.972656 31.75 1.917969 C 32.117188 1.851562 32.394531 1.964844 32.582031 2.25 C 32.359375 2.195312 32.140625 2.140625 31.917969 2.082031 C 31.859375 2.082031 31.804688 2.082031 31.75 2.082031 Z M 31.75 2.082031 "/>
<path style=" stroke:none;fill-rule:evenodd;fill:rgb(70.19608%,85.882354%,99.607843%);fill-opacity:1;" d="M 18.082031 1.917969 C 18.082031 1.972656 18.082031 2.027344 18.082031 2.082031 C 18.027344 2.082031 17.972656 2.082031 17.917969 2.082031 C 17.695312 2.140625 17.472656 2.195312 17.25 2.25 C 17.4375 1.964844 17.71875 1.851562 18.082031 1.917969 Z M 18.082031 1.917969 "/>
<path style=" stroke:none;fill-rule:evenodd;fill:rgb(72.941178%,87.058824%,99.607843%);fill-opacity:1;" d="M 17.082031 2.25 C 16.886719 2.390625 16.664062 2.5 16.417969 2.582031 C 16.53125 2.304688 16.753906 2.191406 17.082031 2.25 Z M 17.082031 2.25 "/>
<path style=" stroke:none;fill-rule:evenodd;fill:rgb(40.784314%,72.156864%,99.607843%);fill-opacity:1;" d="M 31.917969 2.082031 C 32.140625 2.140625 32.359375 2.195312 32.582031 2.25 C 32.695312 2.25 32.75 2.304688 32.75 2.417969 C 32.382812 2.480469 32.105469 2.367188 31.917969 2.082031 Z M 31.917969 2.082031 "/>
<path style=" stroke:none;fill-rule:evenodd;fill:rgb(29.411766%,65.490198%,99.607843%);fill-opacity:1;" d="M 17.917969 2.082031 C 17.484375 2.554688 16.929688 2.777344 16.25 2.75 C 16.25 2.695312 16.25 2.640625 16.25 2.582031 C 16.304688 2.582031 16.359375 2.582031 16.417969 2.582031 C 16.664062 2.5 16.886719 2.390625 17.082031 2.25 C 17.140625 2.25 17.195312 2.25 17.25 2.25 C 17.472656 2.195312 17.695312 2.140625 17.917969 2.082031 Z M 17.917969 2.082031 "/>
<path style=" stroke:none;fill-rule:evenodd;fill:rgb(71.372551%,86.666667%,99.607843%);fill-opacity:1;" d="M 16.25 2.582031 C 16.25 2.640625 16.25 2.695312 16.25 2.75 C 16.007812 2.738281 15.785156 2.792969 15.582031 2.917969 C 15.695312 2.636719 15.917969 2.527344 16.25 2.582031 Z M 16.25 2.582031 "/>
<path style=" stroke:none;fill-rule:evenodd;fill:rgb(58.823532%,80.392158%,99.607843%);fill-opacity:1;" d="M 33.082031 2.417969 C 33.402344 2.464844 33.679688 2.578125 33.917969 2.75 C 33.550781 2.8125 33.273438 2.703125 33.082031 2.417969 Z M 33.082031 2.417969 "/>
<path style=" stroke:none;fill-rule:evenodd;fill:rgb(67.058825%,84.705883%,99.607843%);fill-opacity:1;" d="M 15.582031 2.917969 C 15.386719 3.058594 15.164062 3.167969 14.917969 3.25 C 15.03125 2.96875 15.253906 2.859375 15.582031 2.917969 Z M 15.582031 2.917969 "/>
<path style=" stroke:none;fill-rule:evenodd;fill:rgb(55.29412%,78.823531%,99.607843%);fill-opacity:1;" d="M 33.917969 2.75 C 34.171875 2.738281 34.335938 2.847656 34.417969 3.082031 C 34.164062 3.09375 33.996094 2.984375 33.917969 2.75 Z M 33.917969 2.75 "/>
<path style=" stroke:none;fill-rule:evenodd;fill:rgb(53.725493%,78.039217%,99.607843%);fill-opacity:1;" d="M 34.582031 3.082031 C 34.835938 3.070312 35.003906 3.183594 35.082031 3.417969 C 34.828125 3.429688 34.664062 3.316406 34.582031 3.082031 Z M 34.582031 3.082031 "/>
<path style=" stroke:none;fill-rule:evenodd;fill:rgb(64.705884%,83.137256%,99.607843%);fill-opacity:1;" d="M 14.917969 3.25 C 14.449219 3.566406 13.949219 3.84375 13.417969 4.082031 C 13.796875 3.589844 14.296875 3.308594 14.917969 3.25 Z M 14.917969 3.25 "/>
<path style=" stroke:none;fill-rule:evenodd;fill:rgb(51.764709%,77.64706%,99.607843%);fill-opacity:1;" d="M 35.25 3.417969 C 35.503906 3.40625 35.671875 3.515625 35.75 3.75 C 35.496094 3.761719 35.328125 3.652344 35.25 3.417969 Z M 35.25 3.417969 "/>
<path style=" stroke:none;fill-rule:evenodd;fill:rgb(55.686277%,79.215688%,99.607843%);fill-opacity:1;" d="M 35.917969 3.75 C 36.171875 3.738281 36.335938 3.847656 36.417969 4.082031 C 36.164062 4.09375 35.996094 3.984375 35.917969 3.75 Z M 35.917969 3.75 "/>
<path style=" stroke:none;fill-rule:evenodd;fill:rgb(43.137255%,72.941178%,99.607843%);fill-opacity:1;" d="M 13.417969 4.082031 C 13.335938 4.316406 13.171875 4.429688 12.917969 4.417969 C 12.996094 4.183594 13.164062 4.070312 13.417969 4.082031 Z M 13.417969 4.082031 "/>
<path style=" stroke:none;fill-rule:evenodd;fill:rgb(60.784316%,81.568629%,99.607843%);fill-opacity:1;" d="M 12.417969 4.582031 C 12.289062 4.878906 12.066406 5.042969 11.75 5.082031 C 11.878906 4.789062 12.097656 4.621094 12.417969 4.582031 Z M 12.417969 4.582031 "/>
<path style=" stroke:none;fill-rule:evenodd;fill:rgb(73.725492%,87.450981%,99.607843%);fill-opacity:1;" d="M 37.082031 4.417969 C 37.515625 4.578125 37.90625 4.800781 38.25 5.082031 C 37.742188 5.046875 37.351562 4.824219 37.082031 4.417969 Z M 37.082031 4.417969 "/>
<path style=" stroke:none;fill-rule:evenodd;fill:rgb(58.039218%,80.000001%,99.607843%);fill-opacity:1;" d="M 38.25 5.25 C 38.503906 5.238281 38.671875 5.347656 38.75 5.582031 C 38.496094 5.59375 38.328125 5.484375 38.25 5.25 Z M 38.25 5.25 "/>
<path style=" stroke:none;fill-rule:evenodd;fill:rgb(67.843139%,84.705883%,99.607843%);fill-opacity:1;" d="M 38.75 5.582031 C 39.003906 5.570312 39.171875 5.683594 39.25 5.917969 C 38.996094 5.929688 38.828125 5.816406 38.75 5.582031 Z M 38.75 5.582031 "/>
<path style=" stroke:none;fill-rule:evenodd;fill:rgb(50.588238%,76.47059%,99.607843%);fill-opacity:1;" d="M 11.75 5.082031 C 11.324219 5.6875 10.765625 6.128906 10.082031 6.417969 C 10.566406 5.894531 11.121094 5.453125 11.75 5.082031 Z M 11.75 5.082031 "/>
<path style=" stroke:none;fill-rule:evenodd;fill:rgb(63.921571%,83.137256%,99.607843%);fill-opacity:1;" d="M 39.417969 6.082031 C 39.734375 6.121094 39.957031 6.289062 40.082031 6.582031 C 39.765625 6.542969 39.542969 6.378906 39.417969 6.082031 Z M 39.417969 6.082031 "/>
<path style=" stroke:none;fill-rule:evenodd;fill:rgb(73.725492%,87.450981%,99.607843%);fill-opacity:1;" d="M 40.082031 6.582031 C 40.917969 7.082031 41.582031 7.75 42.082031 8.582031 C 42.027344 8.582031 41.972656 8.582031 41.917969 8.582031 C 41.304688 7.917969 40.695312 7.25 40.082031 6.582031 Z M 40.082031 6.582031 "/>
<path style=" stroke:none;fill-rule:evenodd;fill:rgb(50.196081%,76.078433%,99.607843%);fill-opacity:1;" d="M 10.082031 6.417969 C 9.027344 7.582031 7.917969 8.695312 6.75 9.75 C 6.726562 9.625 6.757812 9.515625 6.832031 9.417969 C 7.847656 8.316406 8.933594 7.316406 10.082031 6.417969 Z M 10.082031 6.417969 "/>
<path style=" stroke:none;fill-rule:evenodd;fill:rgb(34.509805%,68.627453%,99.607843%);fill-opacity:1;" d="M 41.917969 8.582031 C 41.972656 8.582031 42.027344 8.582031 42.082031 8.582031 C 42.304688 8.859375 42.527344 9.140625 42.75 9.417969 C 42.304688 9.304688 42.027344 9.027344 41.917969 8.582031 Z M 41.917969 8.582031 "/>
<path style=" stroke:none;fill-rule:evenodd;fill:rgb(41.960785%,72.549021%,99.607843%);fill-opacity:1;" d="M 42.75 9.417969 C 42.984375 9.496094 43.09375 9.664062 43.082031 9.917969 C 42.847656 9.835938 42.738281 9.671875 42.75 9.417969 Z M 42.75 9.417969 "/>
<path style=" stroke:none;fill-rule:evenodd;fill:rgb(59.607846%,80.784315%,99.607843%);fill-opacity:1;" d="M 6.75 9.75 C 6.761719 10.003906 6.652344 10.171875 6.417969 10.25 C 6.40625 9.996094 6.515625 9.828125 6.75 9.75 Z M 6.75 9.75 "/>
<path style=" stroke:none;fill-rule:evenodd;fill:rgb(53.333336%,77.64706%,99.607843%);fill-opacity:1;" d="M 6.417969 10.25 C 6.15625 10.898438 5.765625 11.453125 5.25 11.917969 C 5.511719 11.269531 5.898438 10.710938 6.417969 10.25 Z M 6.417969 10.25 "/>
<path style=" stroke:none;fill-rule:evenodd;fill:rgb(51.372552%,76.862746%,99.607843%);fill-opacity:1;" d="M 43.082031 9.917969 C 43.484375 10.152344 43.761719 10.484375 43.917969 10.917969 C 43.515625 10.679688 43.238281 10.347656 43.082031 9.917969 Z M 43.082031 9.917969 "/>
<path style=" stroke:none;fill-rule:evenodd;fill:rgb(49.411765%,75.686276%,99.607843%);fill-opacity:1;" d="M 44.082031 11.25 C 44.378906 11.378906 44.542969 11.597656 44.582031 11.917969 C 44.289062 11.789062 44.121094 11.566406 44.082031 11.25 Z M 44.082031 11.25 "/>
<path style=" stroke:none;fill-rule:evenodd;fill:rgb(69.411767%,85.490197%,99.607843%);fill-opacity:1;" d="M 5.25 11.917969 C 5.179688 12.359375 4.957031 12.691406 4.582031 12.917969 C 4.714844 12.503906 4.9375 12.171875 5.25 11.917969 Z M 5.25 11.917969 "/>
<path style=" stroke:none;fill-rule:evenodd;fill:rgb(50.196081%,76.47059%,99.607843%);fill-opacity:1;" d="M 44.917969 12.582031 C 45.152344 12.664062 45.261719 12.828125 45.25 13.082031 C 45.015625 13.003906 44.90625 12.835938 44.917969 12.582031 Z M 44.917969 12.582031 "/>
<path style=" stroke:none;fill-rule:evenodd;fill:rgb(70.980394%,86.274511%,100%);fill-opacity:1;" d="M 4.582031 13.082031 C 4.511719 13.285156 4.398438 13.453125 4.25 13.582031 C 4.214844 13.304688 4.324219 13.136719 4.582031 13.082031 Z M 4.582031 13.082031 "/>
<path style=" stroke:none;fill-rule:evenodd;fill:rgb(54.11765%,78.431374%,99.607843%);fill-opacity:1;" d="M 45.25 13.082031 C 45.710938 13.765625 46.128906 14.488281 46.5 15.25 C 46.582031 15.464844 46.609375 15.6875 46.582031 15.917969 C 46.015625 15.046875 45.570312 14.105469 45.25 13.082031 Z M 45.25 13.082031 "/>
<path style=" stroke:none;fill-rule:evenodd;fill:rgb(68.627453%,85.09804%,99.607843%);fill-opacity:1;" d="M 4.25 13.582031 C 4.152344 14.15625 3.929688 14.65625 3.582031 15.082031 C 3.558594 14.855469 3.585938 14.632812 3.667969 14.417969 C 3.816406 14.09375 4.011719 13.816406 4.25 13.582031 Z M 4.25 13.582031 "/>
<path style=" stroke:none;fill-rule:evenodd;fill:rgb(68.627453%,85.09804%,100%);fill-opacity:1;" d="M 3.582031 15.082031 C 3.5 15.332031 3.390625 15.554688 3.25 15.75 C 3.191406 15.417969 3.304688 15.195312 3.582031 15.082031 Z M 3.582031 15.082031 "/>
<path style=" stroke:none;fill-rule:evenodd;fill:rgb(74.509805%,87.843138%,99.607843%);fill-opacity:1;" d="M 46.582031 15.917969 C 46.863281 16.03125 46.972656 16.253906 46.917969 16.582031 C 46.859375 16.582031 46.804688 16.582031 46.75 16.582031 C 46.695312 16.359375 46.640625 16.140625 46.582031 15.917969 Z M 46.582031 15.917969 "/>
<path style=" stroke:none;fill-rule:evenodd;fill:rgb(37.64706%,70.588237%,99.607843%);fill-opacity:1;" d="M 46.75 16.582031 C 46.804688 16.582031 46.859375 16.582031 46.917969 16.582031 C 46.917969 16.640625 46.917969 16.695312 46.917969 16.75 C 46.972656 16.972656 47.027344 17.195312 47.082031 17.417969 C 46.796875 17.226562 46.6875 16.949219 46.75 16.582031 Z M 46.75 16.582031 "/>
<path style=" stroke:none;fill-rule:evenodd;fill:rgb(73.725492%,87.843138%,99.607843%);fill-opacity:1;" d="M 46.917969 16.75 C 47.203125 16.9375 47.3125 17.21875 47.25 17.582031 C 47.195312 17.582031 47.140625 17.582031 47.082031 17.582031 C 47.082031 17.527344 47.082031 17.472656 47.082031 17.417969 C 47.027344 17.195312 46.972656 16.972656 46.917969 16.75 Z M 46.917969 16.75 "/>
<path style=" stroke:none;fill-rule:evenodd;fill:rgb(41.176471%,71.764708%,99.607843%);fill-opacity:1;" d="M 3.082031 16.417969 C 2.917969 17.710938 2.585938 18.933594 2.082031 20.082031 C 2.085938 19.738281 2.140625 19.40625 2.25 19.082031 C 2.402344 18.140625 2.679688 17.253906 3.082031 16.417969 Z M 3.082031 16.417969 "/>
<path style=" stroke:none;fill-rule:evenodd;fill:rgb(10.588235%,58.823532%,99.607843%);fill-opacity:1;" d="M 23.582031 1.082031 C 24.472656 1.082031 25.359375 1.082031 26.25 1.082031 C 26.320312 1.203125 26.429688 1.285156 26.582031 1.332031 C 27.582031 1.417969 28.582031 1.445312 29.582031 1.417969 C 29.851562 1.679688 30.183594 1.789062 30.582031 1.75 C 30.640625 1.75 30.695312 1.75 30.75 1.75 C 30.988281 2.050781 31.320312 2.164062 31.75 2.082031 C 31.804688 2.082031 31.859375 2.082031 31.917969 2.082031 C 32.105469 2.367188 32.382812 2.480469 32.75 2.417969 C 32.859375 2.417969 32.972656 2.417969 33.082031 2.417969 C 33.273438 2.703125 33.550781 2.8125 33.917969 2.75 C 33.996094 2.984375 34.164062 3.09375 34.417969 3.082031 C 34.472656 3.082031 34.527344 3.082031 34.582031 3.082031 C 34.664062 3.316406 34.828125 3.429688 35.082031 3.417969 C 35.140625 3.417969 35.195312 3.417969 35.25 3.417969 C 35.328125 3.652344 35.496094 3.761719 35.75 3.75 C 35.804688 3.75 35.859375 3.75 35.917969 3.75 C 35.996094 3.984375 36.164062 4.09375 36.417969 4.082031 C 36.640625 4.195312 36.859375 4.304688 37.082031 4.417969 C 37.351562 4.824219 37.742188 5.046875 38.25 5.082031 C 38.25 5.140625 38.25 5.195312 38.25 5.25 C 38.328125 5.484375 38.496094 5.59375 38.75 5.582031 C 38.828125 5.816406 38.996094 5.929688 39.25 5.917969 C 39.25 6.027344 39.304688 6.082031 39.417969 6.082031 C 39.542969 6.378906 39.765625 6.542969 40.082031 6.582031 C 40.695312 7.25 41.304688 7.917969 41.917969 8.582031 C 42.027344 9.027344 42.304688 9.304688 42.75 9.417969 C 42.738281 9.671875 42.847656 9.835938 43.082031 9.917969 C 43.238281 10.347656 43.515625 10.679688 43.917969 10.917969 C 44.054688 10.972656 44.113281 11.085938 44.082031 11.25 C 44.121094 11.566406 44.289062 11.789062 44.582031 11.917969 C 44.777344 12.085938 44.890625 12.308594 44.917969 12.582031 C 44.90625 12.835938 45.015625 13.003906 45.25 13.082031 C 45.570312 14.105469 46.015625 15.046875 46.582031 15.917969 C 46.640625 16.140625 46.695312 16.359375 46.75 16.582031 C 46.6875 16.949219 46.796875 17.226562 47.082031 17.417969 C 47.082031 17.472656 47.082031 17.527344 47.082031 17.582031 C 47.25 18.34375 47.386719 19.121094 47.5 19.917969 C 47.5625 20.007812 47.648438 20.066406 47.75 20.082031 C 48.261719 23.445312 48.152344 26.777344 47.417969 30.082031 C 47.417969 30.25 47.417969 30.417969 47.417969 30.582031 C 47.125 30.757812 47.011719 31.035156 47.082031 31.417969 C 46.824219 31.9375 46.65625 32.492188 46.582031 33.082031 C 46.175781 33.6875 45.898438 34.355469 45.75 35.082031 C 45.292969 35.613281 44.960938 36.226562 44.75 36.917969 C 44.457031 37.042969 44.289062 37.265625 44.25 37.582031 C 44.148438 37.730469 44.09375 37.898438 44.082031 38.082031 C 43.691406 38.3125 43.414062 38.644531 43.25 39.082031 C 42.992188 39.136719 42.878906 39.304688 42.917969 39.582031 C 41.742188 40.871094 40.519531 42.089844 39.25 43.25 C 39.195312 43.25 39.140625 43.25 39.082031 43.25 C 38.652344 43.402344 38.320312 43.679688 38.082031 44.082031 C 37.746094 44.253906 37.414062 44.421875 37.082031 44.582031 C 36.765625 44.621094 36.542969 44.789062 36.417969 45.082031 C 36.234375 45.265625 36.011719 45.378906 35.75 45.417969 C 35.472656 45.441406 35.253906 45.554688 35.082031 45.75 C 34.808594 45.777344 34.585938 45.886719 34.417969 46.082031 C 33.941406 46.296875 33.441406 46.433594 32.917969 46.5 C 32.824219 46.5625 32.769531 46.648438 32.75 46.75 C 32.382812 46.6875 32.105469 46.796875 31.917969 47.082031 C 31.804688 47.082031 31.695312 47.082031 31.582031 47.082031 C 31.164062 47.007812 30.832031 47.121094 30.582031 47.417969 C 30.472656 47.417969 30.359375 47.417969 30.25 47.417969 C 29.761719 47.425781 29.316406 47.539062 28.917969 47.75 C 28.804688 47.75 28.695312 47.75 28.582031 47.75 C 27.707031 47.71875 26.875 47.828125 26.082031 48.082031 C 25.25 48.082031 24.417969 48.082031 23.582031 48.082031 C 22.671875 47.878906 21.730469 47.765625 20.75 47.75 C 20.695312 47.75 20.640625 47.75 20.582031 47.75 C 20.566406 47.648438 20.507812 47.5625 20.417969 47.5 C 19.675781 47.429688 18.953125 47.292969 18.25 47.082031 C 17.832031 46.894531 17.386719 46.78125 16.917969 46.75 C 16.859375 46.75 16.804688 46.75 16.75 46.75 C 16.433594 46.460938 16.046875 46.292969 15.582031 46.25 C 15.257812 46.085938 14.925781 45.921875 14.582031 45.75 C 14.398438 45.339844 14.066406 45.171875 13.582031 45.25 C 13.367188 45.085938 13.144531 44.917969 12.917969 44.75 C 12.835938 44.515625 12.671875 44.40625 12.417969 44.417969 C 12.191406 44.042969 11.859375 43.820312 11.417969 43.75 C 11.0625 43.171875 10.5625 42.78125 9.917969 42.582031 C 9.195312 41.917969 8.472656 41.25 7.75 40.582031 C 7.539062 40.09375 7.207031 39.707031 6.75 39.417969 C 6.75 39.359375 6.75 39.304688 6.75 39.25 C 6.46875 38.460938 6.023438 37.792969 5.417969 37.25 C 5.386719 36.800781 5.167969 36.523438 4.75 36.417969 C 4.761719 36.164062 4.652344 35.996094 4.417969 35.917969 C 4.273438 35.097656 3.941406 34.375 3.417969 33.75 C 3.460938 33.484375 3.40625 33.261719 3.25 33.082031 C 2.894531 31.878906 2.585938 30.65625 2.332031 29.417969 C 2.269531 29.324219 2.1875 29.269531 2.082031 29.25 C 2.082031 28.917969 2.082031 28.582031 2.082031 28.25 C 2.109375 27.414062 2.082031 26.582031 2 25.75 C 1.960938 25.542969 1.878906 25.378906 1.75 25.25 C 1.75 24.695312 1.75 24.140625 1.75 23.582031 C 1.933594 22.503906 2.042969 21.390625 2.082031 20.25 C 2.082031 20.195312 2.082031 20.140625 2.082031 20.082031 C 2.585938 18.933594 2.917969 17.710938 3.082031 16.417969 C 3.140625 16.195312 3.195312 15.972656 3.25 15.75 C 3.390625 15.554688 3.5 15.332031 3.582031 15.082031 C 3.929688 14.65625 4.152344 14.15625 4.25 13.582031 C 4.398438 13.453125 4.511719 13.285156 4.582031 13.082031 C 4.582031 13.027344 4.582031 12.972656 4.582031 12.917969 C 4.957031 12.691406 5.179688 12.359375 5.25 11.917969 C 5.765625 11.453125 6.15625 10.898438 6.417969 10.25 C 6.652344 10.171875 6.761719 10.003906 6.75 9.75 C 7.917969 8.695312 9.027344 7.582031 10.082031 6.417969 C 10.765625 6.128906 11.324219 5.6875 11.75 5.082031 C 12.066406 5.042969 12.289062 4.878906 12.417969 4.582031 C 12.566406 4.480469 12.730469 4.425781 12.917969 4.417969 C 13.171875 4.429688 13.335938 4.316406 13.417969 4.082031 C 13.949219 3.84375 14.449219 3.566406 14.917969 3.25 C 15.164062 3.167969 15.386719 3.058594 15.582031 2.917969 C 15.785156 2.792969 16.007812 2.738281 16.25 2.75 C 16.929688 2.777344 17.484375 2.554688 17.917969 2.082031 C 17.972656 2.082031 18.027344 2.082031 18.082031 2.082031 C 18.886719 1.878906 19.722656 1.738281 20.582031 1.667969 C 20.675781 1.601562 20.730469 1.519531 20.75 1.417969 C 20.972656 1.417969 21.195312 1.417969 21.417969 1.417969 C 22.175781 1.394531 22.898438 1.285156 23.582031 1.082031 Z M 23.582031 1.082031 "/>
<path style=" stroke:none;fill-rule:evenodd;fill:rgb(50.196081%,76.862746%,99.607843%);fill-opacity:1;" d="M 14.582031 17.75 C 14.59375 18.003906 14.484375 18.171875 14.25 18.25 C 14.238281 17.996094 14.347656 17.828125 14.582031 17.75 Z M 14.582031 17.75 "/>
<path style=" stroke:none;fill-rule:evenodd;fill:rgb(73.333335%,87.058824%,99.607843%);fill-opacity:1;" d="M 34.917969 17.417969 C 35.152344 17.496094 35.261719 17.664062 35.25 17.917969 C 35.015625 17.835938 34.90625 17.671875 34.917969 17.417969 Z M 34.917969 17.417969 "/>
<path style=" stroke:none;fill-rule:evenodd;fill:rgb(61.176473%,81.568629%,99.607843%);fill-opacity:1;" d="M 16.917969 15.417969 C 16.140625 16.195312 15.359375 16.972656 14.582031 17.75 C 14.84375 17.183594 15.207031 16.683594 15.667969 16.25 C 16.066406 15.929688 16.484375 15.652344 16.917969 15.417969 Z M 16.917969 15.417969 "/>
<path style=" stroke:none;fill-rule:evenodd;fill:rgb(79.607844%,90.196079%,99.607843%);fill-opacity:1;" d="M 33.417969 15.917969 C 33.8125 16.117188 34.144531 16.394531 34.417969 16.75 C 33.953125 16.628906 33.617188 16.351562 33.417969 15.917969 Z M 33.417969 15.917969 "/>
<path style=" stroke:none;fill-rule:evenodd;fill:rgb(61.176473%,81.568629%,99.607843%);fill-opacity:1;" d="M 31.917969 14.917969 C 32.234375 14.964844 32.511719 15.078125 32.75 15.25 C 32.382812 15.3125 32.105469 15.203125 31.917969 14.917969 Z M 31.917969 14.917969 "/>
<path style=" stroke:none;fill-rule:evenodd;fill:rgb(58.431375%,80.000001%,99.607843%);fill-opacity:1;" d="M 21.417969 13.917969 C 21.417969 13.972656 21.417969 14.027344 21.417969 14.082031 C 19.8125 14.234375 18.3125 14.679688 16.917969 15.417969 C 17.777344 14.597656 18.835938 14.15625 20.082031 14.082031 C 20.515625 13.957031 20.960938 13.898438 21.417969 13.917969 Z M 21.417969 13.917969 "/>
<path style=" stroke:none;fill-rule:evenodd;fill:rgb(59.607846%,80.392158%,99.607843%);fill-opacity:1;" d="M 30.917969 14.582031 C 30.917969 14.527344 30.917969 14.472656 30.917969 14.417969 C 31.332031 14.375 31.609375 14.539062 31.75 14.917969 C 31.472656 14.804688 31.195312 14.695312 30.917969 14.582031 Z M 30.917969 14.582031 "/>
<path style=" stroke:none;fill-rule:evenodd;fill:rgb(99.215686%,99.607843%,99.607843%);fill-opacity:1;" d="M 21.417969 14.082031 C 23.640625 14.054688 25.863281 14.082031 28.082031 14.167969 C 29.0625 14.1875 30.007812 14.324219 30.917969 14.582031 C 31.195312 14.695312 31.472656 14.804688 31.75 14.917969 C 31.804688 14.917969 31.859375 14.917969 31.917969 14.917969 C 32.105469 15.203125 32.382812 15.3125 32.75 15.25 C 32.972656 15.472656 33.195312 15.695312 33.417969 15.917969 C 33.617188 16.351562 33.953125 16.628906 34.417969 16.75 C 34.710938 16.878906 34.878906 17.097656 34.917969 17.417969 C 34.90625 17.671875 35.015625 17.835938 35.25 17.917969 C 35.484375 17.996094 35.59375 18.164062 35.582031 18.417969 C 35.878906 18.804688 36.046875 19.25 36.082031 19.75 C 36.09375 20.238281 36.207031 20.683594 36.417969 21.082031 C 36.472656 21.082031 36.527344 21.082031 36.582031 21.082031 C 36.582031 21.304688 36.582031 21.527344 36.582031 21.75 C 36.609375 24.972656 36.582031 28.195312 36.5 31.417969 C 36.414062 31.753906 36.332031 32.085938 36.25 32.417969 C 36.25 32.472656 36.25 32.527344 36.25 32.582031 C 35.875 32.679688 35.597656 32.902344 35.417969 33.25 C 35.195312 33.304688 34.972656 33.359375 34.75 33.417969 C 28.585938 33.578125 22.417969 33.632812 16.25 33.582031 C 15.804688 33.582031 15.359375 33.582031 14.917969 33.582031 C 14.75 33.472656 14.582031 33.359375 14.417969 33.25 C 14.195312 32.972656 13.972656 32.695312 13.75 32.417969 C 13.792969 32.09375 13.710938 31.816406 13.5 31.582031 C 13.417969 28.082031 13.390625 24.582031 13.417969 21.082031 C 13.730469 20.667969 13.84375 20.167969 13.75 19.582031 C 13.839844 19.3125 13.894531 19.035156 13.917969 18.75 C 14.152344 18.671875 14.261719 18.503906 14.25 18.25 C 14.484375 18.171875 14.59375 18.003906 14.582031 17.75 C 15.359375 16.972656 16.140625 16.195312 16.917969 15.417969 C 18.3125 14.679688 19.8125 14.234375 21.417969 14.082031 Z M 21.417969 14.082031 "/>
<path style=" stroke:none;fill-rule:evenodd;fill:rgb(55.686277%,78.431374%,99.607843%);fill-opacity:1;" d="M 23.582031 16.25 C 23.582031 16.859375 23.582031 17.472656 23.582031 18.082031 C 23.183594 18.074219 22.792969 18.128906 22.417969 18.25 C 22.605469 17.964844 22.882812 17.851562 23.25 17.917969 C 23.222656 17.414062 23.25 16.914062 23.332031 16.417969 C 23.398438 16.324219 23.480469 16.269531 23.582031 16.25 Z M 23.582031 16.25 "/>
<path style=" stroke:none;fill-rule:evenodd;fill:rgb(59.215689%,80.784315%,99.607843%);fill-opacity:1;" d="M 26.25 16.417969 C 26.414062 16.882812 26.46875 17.382812 26.417969 17.917969 C 26.867188 18.085938 27.3125 18.25 27.75 18.417969 C 27.210938 18.429688 26.710938 18.320312 26.25 18.082031 C 26.25 17.527344 26.25 16.972656 26.25 16.417969 Z M 26.25 16.417969 "/>
<path style=" stroke:none;fill-rule:evenodd;fill:rgb(82.745099%,91.764706%,99.607843%);fill-opacity:1;" d="M 21.417969 14.082031 C 21.417969 14.027344 21.417969 13.972656 21.417969 13.917969 C 24.140625 13.875 26.863281 13.933594 29.582031 14.082031 C 30.054688 14.097656 30.5 14.207031 30.917969 14.417969 C 30.917969 14.472656 30.917969 14.527344 30.917969 14.582031 C 30.007812 14.324219 29.0625 14.1875 28.082031 14.167969 C 25.863281 14.082031 23.640625 14.054688 21.417969 14.082031 Z M 21.417969 14.082031 "/>
<path style=" stroke:none;fill-rule:evenodd;fill:rgb(48.235294%,75.686276%,99.607843%);fill-opacity:1;" d="M 29.582031 14.082031 C 26.863281 13.933594 24.140625 13.875 21.417969 13.917969 C 20.960938 13.898438 20.515625 13.957031 20.082031 14.082031 C 20.101562 13.980469 20.15625 13.898438 20.25 13.832031 C 23.304688 13.722656 26.359375 13.722656 29.417969 13.832031 C 29.507812 13.898438 29.566406 13.980469 29.582031 14.082031 Z M 29.582031 14.082031 "/>
<path style=" stroke:none;fill-rule:evenodd;fill:rgb(58.431375%,80.000001%,99.607843%);fill-opacity:1;" d="M 28.582031 9.917969 C 28.585938 10.609375 28.253906 11.023438 27.582031 11.167969 C 25.75 11.277344 23.917969 11.277344 22.082031 11.167969 C 21.929688 11.121094 21.820312 11.035156 21.75 10.917969 C 23.804688 10.945312 25.863281 10.917969 27.917969 10.832031 C 28.125 10.503906 28.347656 10.199219 28.582031 9.917969 Z M 28.582031 9.917969 "/>
<path style=" stroke:none;fill-rule:evenodd;fill:rgb(47.843137%,74.901962%,99.607843%);fill-opacity:1;" d="M 20.917969 9.582031 C 21.175781 9.792969 21.339844 10.074219 21.417969 10.417969 C 21.097656 10.253906 20.933594 9.976562 20.917969 9.582031 Z M 20.917969 9.582031 "/>
<path style=" stroke:none;fill-rule:evenodd;fill:rgb(57.254905%,79.607844%,99.607843%);fill-opacity:1;" d="M 29.082031 9.25 C 29.042969 9.566406 28.878906 9.789062 28.582031 9.917969 C 28.621094 9.597656 28.789062 9.378906 29.082031 9.25 Z M 29.082031 9.25 "/>
<path style=" stroke:none;fill-rule:evenodd;fill:rgb(40.392157%,71.764708%,99.607843%);fill-opacity:1;" d="M 29.25 8.75 C 29.304688 8.75 29.359375 8.75 29.417969 8.75 C 29.429688 9.003906 29.316406 9.171875 29.082031 9.25 C 29.09375 9.066406 29.148438 8.898438 29.25 8.75 Z M 29.25 8.75 "/>
<path style=" stroke:none;fill-rule:evenodd;fill:rgb(50.980395%,76.862746%,99.607843%);fill-opacity:1;" d="M 20.417969 8.75 C 20.472656 8.75 20.527344 8.75 20.582031 8.75 C 20.824219 8.96875 20.933594 9.246094 20.917969 9.582031 C 20.683594 9.351562 20.519531 9.074219 20.417969 8.75 Z M 20.417969 8.75 "/>
<path style=" stroke:none;fill-rule:evenodd;fill:rgb(76.47059%,88.627452%,99.607843%);fill-opacity:1;" d="M 19.75 7.417969 C 20.191406 7.746094 20.46875 8.1875 20.582031 8.75 C 20.527344 8.75 20.472656 8.75 20.417969 8.75 C 20.304688 8.527344 20.195312 8.304688 20.082031 8.082031 C 19.972656 7.859375 19.859375 7.640625 19.75 7.417969 Z M 19.75 7.417969 "/>
<path style=" stroke:none;fill-rule:evenodd;fill:rgb(98.823529%,99.215686%,99.607843%);fill-opacity:1;" d="M 19.917969 6.75 C 23.25 6.75 26.582031 6.75 29.917969 6.75 C 29.796875 7.445312 29.574219 8.113281 29.25 8.75 C 29.148438 8.898438 29.09375 9.066406 29.082031 9.25 C 28.789062 9.378906 28.621094 9.597656 28.582031 9.917969 C 28.347656 10.199219 28.125 10.503906 27.917969 10.832031 C 25.863281 10.917969 23.804688 10.945312 21.75 10.917969 C 21.640625 10.75 21.527344 10.582031 21.417969 10.417969 C 21.339844 10.074219 21.175781 9.792969 20.917969 9.582031 C 20.933594 9.246094 20.824219 8.96875 20.582031 8.75 C 20.46875 8.1875 20.191406 7.746094 19.75 7.417969 C 19.738281 7.171875 19.792969 6.953125 19.917969 6.75 Z M 19.917969 6.75 "/>
<path style=" stroke:none;fill-rule:evenodd;fill:rgb(63.137257%,82.352942%,99.607843%);fill-opacity:1;" d="M 19.917969 6.75 C 23.164062 6.582031 26.441406 6.527344 29.75 6.582031 C 30.082031 6.582031 30.246094 6.746094 30.25 7.082031 C 29.972656 7.644531 29.695312 8.199219 29.417969 8.75 C 29.359375 8.75 29.304688 8.75 29.25 8.75 C 29.574219 8.113281 29.796875 7.445312 29.917969 6.75 C 26.582031 6.75 23.25 6.75 19.917969 6.75 Z M 19.917969 6.75 "/>
<path style=" stroke:none;fill-rule:evenodd;fill:rgb(34.117648%,69.411767%,99.607843%);fill-opacity:1;" d="M 29.75 6.582031 C 26.441406 6.527344 23.164062 6.582031 19.917969 6.75 C 19.792969 6.953125 19.738281 7.171875 19.75 7.417969 C 19.859375 7.640625 19.972656 7.859375 20.082031 8.082031 C 19.5625 7.703125 19.453125 7.203125 19.75 6.582031 C 23.109375 6.363281 26.445312 6.363281 29.75 6.582031 Z M 29.75 6.582031 "/>
<path style=" stroke:none;fill-rule:evenodd;fill:rgb(46.666667%,74.901962%,99.607843%);fill-opacity:1;" d="M 14.25 18.25 C 14.261719 18.503906 14.152344 18.671875 13.917969 18.75 C 13.90625 18.496094 14.015625 18.328125 14.25 18.25 Z M 14.25 18.25 "/>
<path style=" stroke:none;fill-rule:evenodd;fill:rgb(52.156866%,77.254903%,100%);fill-opacity:1;" d="M 22.417969 18.25 C 22.066406 18.519531 21.675781 18.742188 21.25 18.917969 C 21.46875 18.425781 21.855469 18.203125 22.417969 18.25 Z M 22.417969 18.25 "/>
<path style=" stroke:none;fill-rule:evenodd;fill:rgb(37.64706%,70.588237%,99.607843%);fill-opacity:1;" d="M 47.082031 17.582031 C 47.140625 17.582031 47.195312 17.582031 47.25 17.582031 C 47.417969 18.253906 47.582031 18.921875 47.75 19.582031 C 47.75 19.75 47.75 19.917969 47.75 20.082031 C 47.648438 20.066406 47.5625 20.007812 47.5 19.917969 C 47.386719 19.121094 47.25 18.34375 47.082031 17.582031 Z M 47.082031 17.582031 "/>
<path style=" stroke:none;fill-rule:evenodd;fill:rgb(43.921569%,72.549021%,99.607843%);fill-opacity:1;" d="M 27.75 18.417969 C 28.238281 18.484375 28.625 18.707031 28.917969 19.082031 C 28.460938 18.964844 28.070312 18.742188 27.75 18.417969 Z M 27.75 18.417969 "/>
<path style=" stroke:none;fill-rule:evenodd;fill:rgb(39.607844%,70.980394%,99.607843%);fill-opacity:1;" d="M 35.582031 18.417969 C 35.75 18.402344 35.886719 18.457031 36 18.582031 C 36.164062 18.957031 36.246094 19.34375 36.25 19.75 C 36.195312 19.75 36.140625 19.75 36.082031 19.75 C 36.046875 19.25 35.878906 18.804688 35.582031 18.417969 Z M 35.582031 18.417969 "/>
<path style=" stroke:none;fill-rule:evenodd;fill:rgb(53.725493%,78.039217%,99.607843%);fill-opacity:1;" d="M 21.25 18.917969 C 21.050781 19.316406 20.773438 19.652344 20.417969 19.917969 C 20.542969 19.441406 20.820312 19.105469 21.25 18.917969 Z M 21.25 18.917969 "/>
<path style=" stroke:none;fill-rule:evenodd;fill:rgb(71.372551%,86.274511%,99.607843%);fill-opacity:1;" d="M 2.25 19.082031 C 2.140625 19.40625 2.085938 19.738281 2.082031 20.082031 C 2.082031 20.140625 2.082031 20.195312 2.082031 20.25 C 2.027344 20.25 1.972656 20.25 1.917969 20.25 C 1.890625 19.914062 1.917969 19.578125 2 19.25 C 2.0625 19.15625 2.148438 19.101562 2.25 19.082031 Z M 2.25 19.082031 "/>
<path style=" stroke:none;fill-rule:evenodd;fill:rgb(60.000002%,80.784315%,99.607843%);fill-opacity:1;" d="M 28.917969 19.082031 C 29.199219 19.621094 29.085938 20.0625 28.582031 20.417969 C 28.839844 20.019531 28.953125 19.574219 28.917969 19.082031 Z M 28.917969 19.082031 "/>
<path style=" stroke:none;fill-rule:evenodd;fill:rgb(48.235294%,75.686276%,99.607843%);fill-opacity:1;" d="M 36.25 19.917969 C 36.351562 19.933594 36.4375 19.992188 36.5 20.082031 C 36.582031 20.414062 36.609375 20.746094 36.582031 21.082031 C 36.527344 21.082031 36.472656 21.082031 36.417969 21.082031 C 36.425781 20.683594 36.371094 20.292969 36.25 19.917969 Z M 36.25 19.917969 "/>
<path style=" stroke:none;fill-rule:evenodd;fill:rgb(83.137256%,92.156863%,99.607843%);fill-opacity:1;" d="M 13.75 19.582031 C 13.84375 20.167969 13.730469 20.667969 13.417969 21.082031 C 13.417969 20.804688 13.417969 20.527344 13.417969 20.25 C 13.527344 20.027344 13.640625 19.804688 13.75 19.582031 Z M 13.75 19.582031 "/>
<path style=" stroke:none;fill-rule:evenodd;fill:rgb(54.901963%,78.823531%,99.607843%);fill-opacity:1;" d="M 23.582031 20.417969 C 23.695312 20.417969 23.804688 20.417969 23.917969 20.417969 C 23.652344 20.691406 23.542969 21.023438 23.582031 21.417969 C 23.164062 21.105469 23.164062 20.773438 23.582031 20.417969 Z M 23.582031 20.417969 "/>
<path style=" stroke:none;fill-rule:evenodd;fill:rgb(79.607844%,90.588236%,99.607843%);fill-opacity:1;" d="M 36.082031 19.75 C 36.140625 19.75 36.195312 19.75 36.25 19.75 C 36.25 19.804688 36.25 19.859375 36.25 19.917969 C 36.371094 20.292969 36.425781 20.683594 36.417969 21.082031 C 36.207031 20.683594 36.09375 20.238281 36.082031 19.75 Z M 36.082031 19.75 "/>
<path style=" stroke:none;fill-rule:evenodd;fill:rgb(54.901963%,78.823531%,99.607843%);fill-opacity:1;" d="M 26.082031 20.75 C 26.335938 20.738281 26.503906 20.847656 26.582031 21.082031 C 26.328125 21.09375 26.164062 20.984375 26.082031 20.75 Z M 26.082031 20.75 "/>
<path style=" stroke:none;fill-rule:evenodd;fill:rgb(25.490198%,64.705884%,99.607843%);fill-opacity:1;" d="M 25.582031 20.582031 C 26.359375 20.695312 27.140625 20.804688 27.917969 20.917969 C 27.507812 21.078125 27.0625 21.132812 26.582031 21.082031 C 26.503906 20.847656 26.335938 20.738281 26.082031 20.75 C 25.867188 20.789062 25.703125 20.734375 25.582031 20.582031 Z M 25.582031 20.582031 "/>
<path style=" stroke:none;fill-rule:evenodd;fill:rgb(77.64706%,89.411765%,99.607843%);fill-opacity:1;" d="M 1.917969 20.75 C 1.886719 21.144531 1.832031 21.53125 1.75 21.917969 C 1.695312 21.917969 1.640625 21.917969 1.582031 21.917969 C 1.566406 21.476562 1.679688 21.085938 1.917969 20.75 Z M 1.917969 20.75 "/>
<path style=" stroke:none;fill-rule:evenodd;fill:rgb(42.745098%,72.156864%,99.607843%);fill-opacity:1;" d="M 23.582031 21.417969 C 23.882812 21.558594 24.160156 21.726562 24.417969 21.917969 C 24 21.960938 23.722656 21.792969 23.582031 21.417969 Z M 23.582031 21.417969 "/>
<path style=" stroke:none;fill-rule:evenodd;fill:rgb(73.333335%,87.450981%,99.607843%);fill-opacity:1;" d="M 13.417969 20.25 C 13.417969 20.527344 13.417969 20.804688 13.417969 21.082031 C 13.390625 24.582031 13.417969 28.082031 13.5 31.582031 C 13.710938 31.816406 13.792969 32.09375 13.75 32.417969 C 13.695312 32.417969 13.640625 32.417969 13.582031 32.417969 C 13.367188 30.359375 13.257812 28.277344 13.25 26.167969 C 13.25 24.164062 13.304688 22.195312 13.417969 20.25 Z M 13.417969 20.25 "/>
<path style=" stroke:none;fill-rule:evenodd;fill:rgb(42.745098%,72.549021%,99.607843%);fill-opacity:1;" d="M 20.25 20.082031 C 20.136719 21.121094 20.359375 22.0625 20.917969 22.917969 C 20.804688 22.859375 20.695312 22.804688 20.582031 22.75 C 20.109375 21.898438 19.996094 21.011719 20.25 20.082031 Z M 20.25 20.082031 "/>
<path style=" stroke:none;fill-rule:evenodd;fill:rgb(45.09804%,74.117649%,100%);fill-opacity:1;" d="M 24.417969 21.917969 C 24.78125 21.980469 25.117188 22.089844 25.417969 22.25 C 25 22.324219 24.664062 22.214844 24.417969 21.917969 Z M 24.417969 21.917969 "/>
<path style=" stroke:none;fill-rule:evenodd;fill:rgb(35.686275%,70.19608%,99.607843%);fill-opacity:1;" d="M 36.582031 21.75 C 36.777344 25 36.804688 28.277344 36.667969 31.582031 C 36.648438 31.941406 36.511719 32.21875 36.25 32.417969 C 36.332031 32.085938 36.414062 31.753906 36.5 31.417969 C 36.582031 28.195312 36.609375 24.972656 36.582031 21.75 Z M 36.582031 21.75 "/>
<path style=" stroke:none;fill-rule:evenodd;fill:rgb(52.156866%,77.64706%,99.607843%);fill-opacity:1;" d="M 25.417969 22.25 C 25.78125 22.3125 26.117188 22.421875 26.417969 22.582031 C 26 22.65625 25.664062 22.546875 25.417969 22.25 Z M 25.417969 22.25 "/>
<path style=" stroke:none;fill-rule:evenodd;fill:rgb(72.549021%,86.666667%,99.607843%);fill-opacity:1;" d="M 20.582031 22.75 C 20.695312 22.804688 20.804688 22.859375 20.917969 22.917969 C 20.972656 23.027344 21.027344 23.140625 21.082031 23.25 C 20.75 23.25 20.582031 23.082031 20.582031 22.75 Z M 20.582031 22.75 "/>
<path style=" stroke:none;fill-rule:evenodd;fill:rgb(64.705884%,83.137256%,99.607843%);fill-opacity:1;" d="M 26.417969 22.582031 C 26.949219 22.695312 27.449219 22.890625 27.917969 23.167969 C 28.0625 23.285156 28.175781 23.421875 28.25 23.582031 C 27.558594 23.375 26.949219 23.039062 26.417969 22.582031 Z M 26.417969 22.582031 "/>
<path style=" stroke:none;fill-rule:evenodd;fill:rgb(32.549021%,68.235296%,99.607843%);fill-opacity:1;" d="M 1.917969 20.25 C 1.972656 20.25 2.027344 20.25 2.082031 20.25 C 2.042969 21.390625 1.933594 22.503906 1.75 23.582031 C 1.75 23.027344 1.75 22.472656 1.75 21.917969 C 1.832031 21.53125 1.886719 21.144531 1.917969 20.75 C 1.917969 20.582031 1.917969 20.417969 1.917969 20.25 Z M 1.917969 20.25 "/>
<path style=" stroke:none;fill-rule:evenodd;fill:rgb(55.686277%,79.215688%,99.607843%);fill-opacity:1;" d="M 21.082031 23.25 C 21.285156 23.320312 21.453125 23.433594 21.582031 23.582031 C 21.304688 23.621094 21.136719 23.507812 21.082031 23.25 Z M 21.082031 23.25 "/>
<path style=" stroke:none;fill-rule:evenodd;fill:rgb(47.843137%,75.294119%,99.607843%);fill-opacity:1;" d="M 21.917969 23.75 C 22.234375 23.789062 22.457031 23.957031 22.582031 24.25 C 22.265625 24.210938 22.042969 24.042969 21.917969 23.75 Z M 21.917969 23.75 "/>
<path style=" stroke:none;fill-rule:evenodd;fill:rgb(40.000001%,71.372551%,99.607843%);fill-opacity:1;" d="M 28.582031 23.917969 C 28.878906 24.042969 29.042969 24.265625 29.082031 24.582031 C 28.789062 24.457031 28.621094 24.234375 28.582031 23.917969 Z M 28.582031 23.917969 "/>
<path style=" stroke:none;fill-rule:evenodd;fill:rgb(54.11765%,78.431374%,99.607843%);fill-opacity:1;" d="M 1.582031 21.917969 C 1.640625 21.917969 1.695312 21.917969 1.75 21.917969 C 1.75 22.472656 1.75 23.027344 1.75 23.582031 C 1.75 24.140625 1.75 24.695312 1.75 25.25 C 1.734375 26.089844 1.789062 26.921875 1.917969 27.75 C 1.789062 27.621094 1.707031 27.457031 1.667969 27.25 C 1.582031 25.472656 1.554688 23.695312 1.582031 21.917969 Z M 1.582031 21.917969 "/>
<path style=" stroke:none;fill-rule:evenodd;fill:rgb(52.941179%,77.64706%,99.607843%);fill-opacity:1;" d="M 47.75 19.582031 C 47.871094 20.207031 48.039062 20.816406 48.25 21.417969 C 48.277344 23.363281 48.25 25.304688 48.167969 27.25 C 47.929688 27.828125 47.847656 28.4375 47.917969 29.082031 C 47.773438 29.402344 47.660156 29.738281 47.582031 30.082031 C 47.527344 30.082031 47.472656 30.082031 47.417969 30.082031 C 48.152344 26.777344 48.261719 23.445312 47.75 20.082031 C 47.75 19.917969 47.75 19.75 47.75 19.582031 Z M 47.75 19.582031 "/>
<path style=" stroke:none;fill-rule:evenodd;fill:rgb(35.294119%,69.01961%,99.607843%);fill-opacity:1;" d="M 23.082031 24.417969 C 23.421875 24.390625 23.753906 24.417969 24.082031 24.5 C 24.515625 24.632812 24.851562 24.882812 25.082031 25.25 C 24.898438 25.242188 24.730469 25.183594 24.582031 25.082031 C 24.136719 24.738281 23.636719 24.515625 23.082031 24.417969 Z M 23.082031 24.417969 "/>
<path style=" stroke:none;fill-rule:evenodd;fill:rgb(73.725492%,87.450981%,99.607843%);fill-opacity:1;" d="M 22.75 24.25 C 22.914062 24.222656 23.027344 24.277344 23.082031 24.417969 C 23.636719 24.515625 24.136719 24.738281 24.582031 25.082031 C 24.035156 24.933594 23.480469 24.765625 22.917969 24.582031 C 22.855469 24.46875 22.800781 24.359375 22.75 24.25 Z M 22.75 24.25 "/>
<path style=" stroke:none;fill-rule:evenodd;fill:rgb(86.666667%,93.725491%,99.607843%);fill-opacity:1;" d="M 22.75 26.082031 C 22.640625 26.082031 22.527344 26.082031 22.417969 26.082031 C 22.027344 25.828125 21.582031 25.714844 21.082031 25.75 C 21.160156 25.550781 21.328125 25.441406 21.582031 25.417969 C 22.046875 25.539062 22.433594 25.761719 22.75 26.082031 Z M 22.75 26.082031 "/>
<path style=" stroke:none;fill-rule:evenodd;fill:rgb(35.294119%,69.803923%,99.607843%);fill-opacity:1;" d="M 29.082031 24.582031 C 29.316406 24.664062 29.429688 24.828125 29.417969 25.082031 C 29.417969 25.582031 29.417969 26.082031 29.417969 26.582031 C 29.417969 26.695312 29.417969 26.804688 29.417969 26.917969 C 29.359375 26.917969 29.304688 26.917969 29.25 26.917969 C 29.285156 26.128906 29.230469 25.351562 29.082031 24.582031 Z M 29.082031 24.582031 "/>
<path style=" stroke:none;fill-rule:evenodd;fill:rgb(75.686276%,88.627452%,99.607843%);fill-opacity:1;" d="M 29.417969 25.082031 C 29.65625 25.324219 29.769531 25.628906 29.75 26 C 29.730469 26.28125 29.621094 26.476562 29.417969 26.582031 C 29.417969 26.082031 29.417969 25.582031 29.417969 25.082031 Z M 29.417969 25.082031 "/>
<path style=" stroke:none;fill-rule:evenodd;fill:rgb(91.764706%,96.078432%,99.607843%);fill-opacity:1;" d="M 48.25 21.417969 C 48.441406 23.5 48.472656 25.609375 48.332031 27.75 C 48.15625 28.195312 48.019531 28.640625 47.917969 29.082031 C 47.847656 28.4375 47.929688 27.828125 48.167969 27.25 C 48.25 25.304688 48.277344 23.363281 48.25 21.417969 Z M 48.25 21.417969 "/>
<path style=" stroke:none;fill-rule:evenodd;fill:rgb(67.843139%,85.09804%,99.607843%);fill-opacity:1;" d="M 25.417969 25.417969 C 25.582031 25.472656 25.695312 25.582031 25.75 25.75 C 25.789062 25.964844 25.734375 26.132812 25.582031 26.25 C 25.5625 25.964844 25.507812 25.6875 25.417969 25.417969 Z M 25.417969 25.417969 "/>
<path style=" stroke:none;fill-rule:evenodd;fill:rgb(34.509805%,68.627453%,99.607843%);fill-opacity:1;" d="M 21.082031 25.75 C 21.582031 25.714844 22.027344 25.828125 22.417969 26.082031 C 21.859375 26.011719 21.359375 26.121094 20.917969 26.417969 C 20.925781 26.230469 20.980469 26.066406 21.082031 25.917969 C 21.082031 25.859375 21.082031 25.804688 21.082031 25.75 Z M 21.082031 25.75 "/>
<path style=" stroke:none;fill-rule:evenodd;fill:rgb(11.372549%,58.823532%,99.607843%);fill-opacity:1;" d="M 23.582031 16.25 C 24.503906 16.195312 25.394531 16.253906 26.25 16.417969 C 26.25 16.972656 26.25 17.527344 26.25 18.082031 C 26.710938 18.320312 27.210938 18.429688 27.75 18.417969 C 28.070312 18.742188 28.460938 18.964844 28.917969 19.082031 C 28.953125 19.574219 28.839844 20.019531 28.582031 20.417969 C 28.355469 20.585938 28.132812 20.753906 27.917969 20.917969 C 27.140625 20.804688 26.359375 20.695312 25.582031 20.582031 C 25.324219 20.367188 24.992188 20.257812 24.582031 20.25 C 24.21875 20.25 23.882812 20.304688 23.582031 20.417969 C 23.164062 20.773438 23.164062 21.105469 23.582031 21.417969 C 23.722656 21.792969 24 21.960938 24.417969 21.917969 C 24.664062 22.214844 25 22.324219 25.417969 22.25 C 25.664062 22.546875 26 22.65625 26.417969 22.582031 C 26.949219 23.039062 27.558594 23.375 28.25 23.582031 C 28.417969 23.640625 28.527344 23.75 28.582031 23.917969 C 28.621094 24.234375 28.789062 24.457031 29.082031 24.582031 C 29.230469 25.351562 29.285156 26.128906 29.25 26.917969 C 28.863281 27.667969 28.308594 28.28125 27.582031 28.75 C 27.472656 28.75 27.359375 28.75 27.25 28.75 C 26.925781 28.8125 26.621094 28.921875 26.332031 29.082031 C 26.25 29.691406 26.222656 30.304688 26.25 30.917969 C 26.195312 30.917969 26.140625 30.917969 26.082031 30.917969 C 25.304688 30.917969 24.527344 30.917969 23.75 30.917969 C 23.804688 30.296875 23.75 29.683594 23.582031 29.082031 C 23.320312 28.949219 23.042969 28.894531 22.75 28.917969 C 22.425781 28.808594 22.09375 28.753906 21.75 28.75 C 21.695312 28.75 21.640625 28.75 21.582031 28.75 C 21.527344 28.640625 21.472656 28.527344 21.417969 28.417969 C 21.03125 28.199219 20.644531 27.980469 20.25 27.75 C 20.253906 27.40625 20.308594 27.074219 20.417969 26.75 C 20.582031 26.640625 20.75 26.527344 20.917969 26.417969 C 21.359375 26.121094 21.859375 26.011719 22.417969 26.082031 C 22.527344 26.082031 22.640625 26.082031 22.75 26.082031 C 22.808594 26.222656 22.917969 26.277344 23.082031 26.25 C 23.132812 26.359375 23.191406 26.46875 23.25 26.582031 C 23.964844 26.777344 24.6875 26.804688 25.417969 26.667969 C 25.902344 26.472656 26.011719 26.164062 25.75 25.75 C 25.695312 25.582031 25.582031 25.472656 25.417969 25.417969 C 25.359375 25.277344 25.25 25.222656 25.082031 25.25 C 24.851562 24.882812 24.515625 24.632812 24.082031 24.5 C 23.753906 24.417969 23.421875 24.390625 23.082031 24.417969 C 23.027344 24.277344 22.914062 24.222656 22.75 24.25 C 22.695312 24.25 22.640625 24.25 22.582031 24.25 C 22.457031 23.957031 22.234375 23.789062 21.917969 23.75 C 21.804688 23.695312 21.695312 23.640625 21.582031 23.582031 C 21.453125 23.433594 21.285156 23.320312 21.082031 23.25 C 21.027344 23.140625 20.972656 23.027344 20.917969 22.917969 C 20.359375 22.0625 20.136719 21.121094 20.25 20.082031 C 20.359375 20.082031 20.417969 20.027344 20.417969 19.917969 C 20.773438 19.652344 21.050781 19.316406 21.25 18.917969 C 21.675781 18.742188 22.066406 18.519531 22.417969 18.25 C 22.792969 18.128906 23.183594 18.074219 23.582031 18.082031 C 23.582031 17.472656 23.582031 16.859375 23.582031 16.25 Z M 23.582031 16.25 "/>
<path style=" stroke:none;fill-rule:evenodd;fill:rgb(36.470589%,69.803923%,99.607843%);fill-opacity:1;" d="M 23.582031 20.417969 C 23.882812 20.304688 24.21875 20.25 24.582031 20.25 C 24.992188 20.257812 25.324219 20.367188 25.582031 20.582031 C 25.03125 20.492188 24.476562 20.4375 23.917969 20.417969 C 23.804688 20.417969 23.695312 20.417969 23.582031 20.417969 Z M 23.582031 20.417969 "/>
<path style=" stroke:none;fill-rule:evenodd;fill:rgb(24.313726%,64.313728%,99.607843%);fill-opacity:1;" d="M 1.75 25.25 C 1.878906 25.378906 1.960938 25.542969 2 25.75 C 2.082031 26.582031 2.109375 27.414062 2.082031 28.25 C 2.027344 28.25 1.972656 28.25 1.917969 28.25 C 1.917969 28.082031 1.917969 27.917969 1.917969 27.75 C 1.789062 26.921875 1.734375 26.089844 1.75 25.25 Z M 1.75 25.25 "/>
<path style=" stroke:none;fill-rule:evenodd;fill:rgb(57.254905%,80.000001%,99.607843%);fill-opacity:1;" d="M 21.082031 25.917969 C 20.980469 26.066406 20.925781 26.230469 20.917969 26.417969 C 20.75 26.527344 20.582031 26.640625 20.417969 26.75 C 20.523438 26.367188 20.746094 26.089844 21.082031 25.917969 Z M 21.082031 25.917969 "/>
<path style=" stroke:none;fill-rule:evenodd;fill:rgb(43.921569%,73.333335%,99.607843%);fill-opacity:1;" d="M 25.75 25.75 C 26.011719 26.164062 25.902344 26.472656 25.417969 26.667969 C 24.6875 26.804688 23.964844 26.777344 23.25 26.582031 C 23.191406 26.46875 23.132812 26.359375 23.082031 26.25 C 23.566406 26.429688 24.066406 26.539062 24.582031 26.582031 C 24.980469 26.605469 25.3125 26.496094 25.582031 26.25 C 25.734375 26.132812 25.789062 25.964844 25.75 25.75 Z M 25.75 25.75 "/>
<path style=" stroke:none;fill-rule:evenodd;fill:rgb(56.862748%,79.607844%,99.607843%);fill-opacity:1;" d="M 20.417969 26.75 C 20.308594 27.074219 20.253906 27.40625 20.25 27.75 C 20.144531 27.652344 20.089844 27.511719 20.082031 27.332031 C 20.066406 27.050781 20.175781 26.855469 20.417969 26.75 Z M 20.417969 26.75 "/>
<path style=" stroke:none;fill-rule:evenodd;fill:rgb(36.470589%,69.803923%,99.607843%);fill-opacity:1;" d="M 20.25 27.75 C 20.644531 27.980469 21.03125 28.199219 21.417969 28.417969 C 21.304688 28.417969 21.195312 28.417969 21.082031 28.417969 C 20.707031 28.320312 20.429688 28.097656 20.25 27.75 Z M 20.25 27.75 "/>
<path style=" stroke:none;fill-rule:evenodd;fill:rgb(62.352943%,82.352942%,99.607843%);fill-opacity:1;" d="M 21.082031 28.417969 C 21.195312 28.417969 21.304688 28.417969 21.417969 28.417969 C 21.472656 28.527344 21.527344 28.640625 21.582031 28.75 C 21.328125 28.761719 21.164062 28.652344 21.082031 28.417969 Z M 21.082031 28.417969 "/>
<path style=" stroke:none;fill-rule:evenodd;fill:rgb(67.450982%,84.705883%,99.607843%);fill-opacity:1;" d="M 29.25 26.917969 C 29.304688 26.917969 29.359375 26.917969 29.417969 26.917969 C 29.25 27.230469 29.109375 27.5625 29 27.917969 C 28.613281 28.167969 28.25 28.445312 27.917969 28.75 C 27.804688 28.75 27.695312 28.75 27.582031 28.75 C 28.308594 28.28125 28.863281 27.667969 29.25 26.917969 Z M 29.25 26.917969 "/>
<path style=" stroke:none;fill-rule:evenodd;fill:rgb(58.823532%,80.392158%,99.607843%);fill-opacity:1;" d="M 21.75 28.75 C 22.09375 28.753906 22.425781 28.808594 22.75 28.917969 C 22.75 28.972656 22.75 29.027344 22.75 29.082031 C 22.351562 29.125 22.015625 29.011719 21.75 28.75 Z M 21.75 28.75 "/>
<path style=" stroke:none;fill-rule:evenodd;fill:rgb(21.176471%,63.137257%,99.607843%);fill-opacity:1;" d="M 22.75 29.082031 C 22.75 29.027344 22.75 28.972656 22.75 28.917969 C 23.042969 28.894531 23.320312 28.949219 23.582031 29.082031 C 23.75 29.683594 23.804688 30.296875 23.75 30.917969 C 24.527344 30.917969 25.304688 30.917969 26.082031 30.917969 C 25.28125 31.082031 24.449219 31.136719 23.582031 31.082031 C 23.582031 31.027344 23.582031 30.972656 23.582031 30.917969 C 23.609375 30.414062 23.582031 29.914062 23.5 29.417969 C 23.4375 29.324219 23.351562 29.269531 23.25 29.25 C 23.132812 29.097656 22.964844 29.042969 22.75 29.082031 Z M 22.75 29.082031 "/>
<path style=" stroke:none;fill-rule:evenodd;fill:rgb(49.411765%,76.078433%,99.607843%);fill-opacity:1;" d="M 27.25 28.75 C 27.0625 28.992188 26.8125 29.15625 26.5 29.25 C 26.417969 29.746094 26.390625 30.246094 26.417969 30.75 C 26.417969 30.859375 26.359375 30.917969 26.25 30.917969 C 26.222656 30.304688 26.25 29.691406 26.332031 29.082031 C 26.621094 28.921875 26.925781 28.8125 27.25 28.75 Z M 27.25 28.75 "/>
<path style=" stroke:none;fill-rule:evenodd;fill:rgb(75.294119%,87.843138%,100%);fill-opacity:1;" d="M 1.917969 28.25 C 1.972656 28.25 2.027344 28.25 2.082031 28.25 C 2.082031 28.582031 2.082031 28.917969 2.082031 29.25 C 2.191406 29.574219 2.246094 29.90625 2.25 30.25 C 2.128906 30.179688 2.046875 30.070312 2 29.917969 C 1.917969 29.363281 1.890625 28.808594 1.917969 28.25 Z M 1.917969 28.25 "/>
<path style=" stroke:none;fill-rule:evenodd;fill:rgb(87.843138%,94.509804%,99.607843%);fill-opacity:1;" d="M 27.25 28.75 C 27.359375 28.75 27.472656 28.75 27.582031 28.75 C 27.695312 28.75 27.804688 28.75 27.917969 28.75 C 27.566406 28.984375 27.175781 29.152344 26.75 29.25 C 26.84375 29.835938 26.730469 30.335938 26.417969 30.75 C 26.390625 30.246094 26.417969 29.746094 26.5 29.25 C 26.8125 29.15625 27.0625 28.992188 27.25 28.75 Z M 27.25 28.75 "/>
<path style=" stroke:none;fill-rule:evenodd;fill:rgb(73.725492%,87.450981%,99.607843%);fill-opacity:1;" d="M 23.25 29.25 C 23.351562 29.269531 23.4375 29.324219 23.5 29.417969 C 23.582031 29.914062 23.609375 30.414062 23.582031 30.917969 C 23.480469 30.898438 23.398438 30.84375 23.332031 30.75 C 23.25 30.253906 23.222656 29.753906 23.25 29.25 Z M 23.25 29.25 "/>
<path style=" stroke:none;fill-rule:evenodd;fill:rgb(56.470591%,78.823531%,99.607843%);fill-opacity:1;" d="M 2.082031 29.25 C 2.1875 29.269531 2.269531 29.324219 2.332031 29.417969 C 2.585938 30.65625 2.894531 31.878906 3.25 33.082031 C 2.710938 32.222656 2.375 31.277344 2.25 30.25 C 2.246094 29.90625 2.191406 29.574219 2.082031 29.25 Z M 2.082031 29.25 "/>
<path style=" stroke:none;fill-rule:evenodd;fill:rgb(59.607846%,81.568629%,99.607843%);fill-opacity:1;" d="M 26.082031 30.917969 C 26.140625 30.917969 26.195312 30.917969 26.25 30.917969 C 25.875 31.136719 25.433594 31.246094 24.917969 31.25 C 24.441406 31.25 23.996094 31.195312 23.582031 31.082031 C 24.449219 31.136719 25.28125 31.082031 26.082031 30.917969 Z M 26.082031 30.917969 "/>
<path style=" stroke:none;fill-rule:evenodd;fill:rgb(38.82353%,71.372551%,100%);fill-opacity:1;" d="M 47.417969 30.582031 C 47.359375 30.804688 47.304688 31.027344 47.25 31.25 C 47.25 31.304688 47.25 31.359375 47.25 31.417969 C 47.195312 31.417969 47.140625 31.417969 47.082031 31.417969 C 47.011719 31.035156 47.125 30.757812 47.417969 30.582031 Z M 47.417969 30.582031 "/>
<path style=" stroke:none;fill-rule:evenodd;fill:rgb(71.372551%,86.274511%,99.607843%);fill-opacity:1;" d="M 47.417969 30.082031 C 47.472656 30.082031 47.527344 30.082031 47.582031 30.082031 C 47.609375 30.421875 47.582031 30.753906 47.5 31.082031 C 47.4375 31.175781 47.351562 31.230469 47.25 31.25 C 47.304688 31.027344 47.359375 30.804688 47.417969 30.582031 C 47.417969 30.417969 47.417969 30.25 47.417969 30.082031 Z M 47.417969 30.082031 "/>
<path style=" stroke:none;fill-rule:evenodd;fill:rgb(56.862748%,79.607844%,99.607843%);fill-opacity:1;" d="M 47.082031 31.417969 C 47.140625 31.417969 47.195312 31.417969 47.25 31.417969 C 47.277344 31.644531 47.25 31.867188 47.167969 32.082031 C 46.988281 32.4375 46.792969 32.769531 46.582031 33.082031 C 46.65625 32.492188 46.824219 31.9375 47.082031 31.417969 Z M 47.082031 31.417969 "/>
<path style=" stroke:none;fill-rule:evenodd;fill:rgb(52.156866%,76.862746%,99.607843%);fill-opacity:1;" d="M 13.582031 32.417969 C 13.640625 32.417969 13.695312 32.417969 13.75 32.417969 C 13.972656 32.695312 14.195312 32.972656 14.417969 33.25 C 13.972656 33.140625 13.695312 32.859375 13.582031 32.417969 Z M 13.582031 32.417969 "/>
<path style=" stroke:none;fill-rule:evenodd;fill:rgb(50.588238%,76.47059%,99.607843%);fill-opacity:1;" d="M 36.25 32.582031 C 36.070312 32.929688 35.792969 33.152344 35.417969 33.25 C 35.597656 32.902344 35.875 32.679688 36.25 32.582031 Z M 36.25 32.582031 "/>
<path style=" stroke:none;fill-rule:evenodd;fill:rgb(93.333334%,96.470588%,99.607843%);fill-opacity:1;" d="M 34.75 33.417969 C 34.621094 33.542969 34.457031 33.628906 34.25 33.667969 C 28.222656 33.804688 22.222656 33.777344 16.25 33.582031 C 22.417969 33.632812 28.585938 33.578125 34.75 33.417969 Z M 34.75 33.417969 "/>
<path style=" stroke:none;fill-rule:evenodd;fill:rgb(70.19608%,86.666667%,99.607843%);fill-opacity:1;" d="M 35.417969 33.25 C 35.28125 33.453125 35.117188 33.621094 34.917969 33.75 C 34.859375 33.75 34.804688 33.75 34.75 33.75 C 28.195312 33.972656 21.640625 33.972656 15.082031 33.75 C 14.972656 33.75 14.917969 33.695312 14.917969 33.582031 C 15.359375 33.582031 15.804688 33.582031 16.25 33.582031 C 22.222656 33.777344 28.222656 33.804688 34.25 33.667969 C 34.457031 33.628906 34.621094 33.542969 34.75 33.417969 C 34.972656 33.359375 35.195312 33.304688 35.417969 33.25 Z M 35.417969 33.25 "/>
<path style=" stroke:none;fill-rule:evenodd;fill:rgb(31.764707%,68.235296%,99.607843%);fill-opacity:1;" d="M 15.082031 33.75 C 21.640625 33.972656 28.195312 33.972656 34.75 33.75 C 34.730469 33.851562 34.675781 33.9375 34.582031 34 C 28.304688 34.082031 22.027344 34.109375 15.75 34.082031 C 15.4375 34.128906 15.214844 34.015625 15.082031 33.75 Z M 15.082031 33.75 "/>
<path style=" stroke:none;fill-rule:evenodd;fill:rgb(6.666667%,56.862748%,99.607843%);fill-opacity:1;" d="M 34.75 33.75 C 34.804688 33.75 34.859375 33.75 34.917969 33.75 C 35.113281 33.714844 35.277344 33.769531 35.417969 33.917969 C 35.195312 34.027344 34.972656 34.140625 34.75 34.25 C 28.472656 34.445312 22.195312 34.472656 15.917969 34.332031 C 15.824219 34.269531 15.769531 34.1875 15.75 34.082031 C 22.027344 34.109375 28.304688 34.082031 34.582031 34 C 34.675781 33.9375 34.730469 33.851562 34.75 33.75 Z M 34.75 33.75 "/>
<path style=" stroke:none;fill-rule:evenodd;fill:rgb(49.019608%,75.686276%,99.607843%);fill-opacity:1;" d="M 46.582031 33.082031 C 46.433594 33.8125 46.15625 34.476562 45.75 35.082031 C 45.898438 34.355469 46.175781 33.6875 46.582031 33.082031 Z M 46.582031 33.082031 "/>
<path style=" stroke:none;fill-rule:evenodd;fill:rgb(60.784316%,81.568629%,99.607843%);fill-opacity:1;" d="M 3.417969 33.75 C 3.941406 34.375 4.273438 35.097656 4.417969 35.917969 C 4.023438 35.234375 3.6875 34.511719 3.417969 33.75 Z M 3.417969 33.75 "/>
<path style=" stroke:none;fill-rule:evenodd;fill:rgb(60.000002%,81.176472%,99.607843%);fill-opacity:1;" d="M 45.75 35.082031 C 45.636719 35.617188 45.441406 36.117188 45.167969 36.582031 C 45.046875 36.730469 44.910156 36.839844 44.75 36.917969 C 44.960938 36.226562 45.292969 35.613281 45.75 35.082031 Z M 45.75 35.082031 "/>
<path style=" stroke:none;fill-rule:evenodd;fill:rgb(69.01961%,85.09804%,99.607843%);fill-opacity:1;" d="M 4.417969 35.917969 C 4.652344 35.996094 4.761719 36.164062 4.75 36.417969 C 4.515625 36.335938 4.40625 36.171875 4.417969 35.917969 Z M 4.417969 35.917969 "/>
<path style=" stroke:none;fill-rule:evenodd;fill:rgb(35.294119%,69.411767%,99.607843%);fill-opacity:1;" d="M 4.75 36.417969 C 5.167969 36.523438 5.386719 36.800781 5.417969 37.25 C 5.15625 37.007812 4.933594 36.730469 4.75 36.417969 Z M 4.75 36.417969 "/>
<path style=" stroke:none;fill-rule:evenodd;fill:rgb(52.549022%,77.64706%,99.607843%);fill-opacity:1;" d="M 44.75 36.917969 C 44.710938 37.234375 44.542969 37.457031 44.25 37.582031 C 44.289062 37.265625 44.457031 37.042969 44.75 36.917969 Z M 44.75 36.917969 "/>
<path style=" stroke:none;fill-rule:evenodd;fill:rgb(35.686275%,69.01961%,99.607843%);fill-opacity:1;" d="M 5.417969 37.25 C 6.023438 37.792969 6.46875 38.460938 6.75 39.25 C 6.222656 38.640625 5.777344 37.976562 5.417969 37.25 Z M 5.417969 37.25 "/>
<path style=" stroke:none;fill-rule:evenodd;fill:rgb(60.392159%,81.176472%,99.607843%);fill-opacity:1;" d="M 44.082031 38.082031 C 43.925781 38.519531 43.648438 38.851562 43.25 39.082031 C 43.414062 38.644531 43.691406 38.3125 44.082031 38.082031 Z M 44.082031 38.082031 "/>
<path style=" stroke:none;fill-rule:evenodd;fill:rgb(43.529412%,73.333335%,99.607843%);fill-opacity:1;" d="M 43.25 39.082031 C 43.148438 39.230469 43.09375 39.398438 43.082031 39.582031 C 43.027344 39.582031 42.972656 39.582031 42.917969 39.582031 C 42.878906 39.304688 42.992188 39.136719 43.25 39.082031 Z M 43.25 39.082031 "/>
<path style=" stroke:none;fill-rule:evenodd;fill:rgb(67.450982%,84.313726%,99.607843%);fill-opacity:1;" d="M 6.75 39.417969 C 7.207031 39.707031 7.539062 40.09375 7.75 40.582031 C 7.292969 40.292969 6.960938 39.90625 6.75 39.417969 Z M 6.75 39.417969 "/>
<path style=" stroke:none;fill-rule:evenodd;fill:rgb(66.666669%,83.92157%,99.607843%);fill-opacity:1;" d="M 42.917969 39.582031 C 42.972656 39.582031 43.027344 39.582031 43.082031 39.582031 C 42.019531 41.035156 40.742188 42.257812 39.25 43.25 C 40.519531 42.089844 41.742188 40.871094 42.917969 39.582031 Z M 42.917969 39.582031 "/>
<path style=" stroke:none;fill-rule:evenodd;fill:rgb(41.176471%,71.764708%,99.607843%);fill-opacity:1;" d="M 9.917969 42.582031 C 10.5625 42.78125 11.0625 43.171875 11.417969 43.75 C 10.863281 43.417969 10.363281 43.027344 9.917969 42.582031 Z M 9.917969 42.582031 "/>
<path style=" stroke:none;fill-rule:evenodd;fill:rgb(45.490196%,73.725492%,100%);fill-opacity:1;" d="M 11.417969 43.75 C 11.859375 43.820312 12.191406 44.042969 12.417969 44.417969 C 12.003906 44.285156 11.671875 44.0625 11.417969 43.75 Z M 11.417969 43.75 "/>
<path style=" stroke:none;fill-rule:evenodd;fill:rgb(64.705884%,83.137256%,100%);fill-opacity:1;" d="M 39.082031 43.25 C 38.847656 43.652344 38.515625 43.929688 38.082031 44.082031 C 38.320312 43.679688 38.652344 43.402344 39.082031 43.25 Z M 39.082031 43.25 "/>
<path style=" stroke:none;fill-rule:evenodd;fill:rgb(47.058824%,74.901962%,100%);fill-opacity:1;" d="M 12.417969 44.417969 C 12.671875 44.40625 12.835938 44.515625 12.917969 44.75 C 12.664062 44.761719 12.496094 44.652344 12.417969 44.417969 Z M 12.417969 44.417969 "/>
<path style=" stroke:none;fill-rule:evenodd;fill:rgb(51.764709%,77.254903%,99.607843%);fill-opacity:1;" d="M 37.082031 44.582031 C 36.957031 44.878906 36.734375 45.042969 36.417969 45.082031 C 36.542969 44.789062 36.765625 44.621094 37.082031 44.582031 Z M 37.082031 44.582031 "/>
<path style=" stroke:none;fill-rule:evenodd;fill:rgb(46.666667%,74.117649%,99.607843%);fill-opacity:1;" d="M 13.582031 45.25 C 14.066406 45.171875 14.398438 45.339844 14.582031 45.75 C 14.195312 45.667969 13.863281 45.5 13.582031 45.25 Z M 13.582031 45.25 "/>
<path style=" stroke:none;fill-rule:evenodd;fill:rgb(50.588238%,76.862746%,99.607843%);fill-opacity:1;" d="M 35.75 45.417969 C 35.617188 45.683594 35.398438 45.796875 35.082031 45.75 C 35.253906 45.554688 35.472656 45.441406 35.75 45.417969 Z M 35.75 45.417969 "/>
<path style=" stroke:none;fill-rule:evenodd;fill:rgb(52.549022%,77.64706%,99.607843%);fill-opacity:1;" d="M 35.082031 45.75 C 34.953125 46.015625 34.730469 46.128906 34.417969 46.082031 C 34.585938 45.886719 34.808594 45.777344 35.082031 45.75 Z M 35.082031 45.75 "/>
<path style=" stroke:none;fill-rule:evenodd;fill:rgb(65.490198%,83.529413%,99.607843%);fill-opacity:1;" d="M 15.582031 46.25 C 16.046875 46.292969 16.433594 46.460938 16.75 46.75 C 16.289062 46.707031 15.898438 46.539062 15.582031 46.25 Z M 15.582031 46.25 "/>
<path style=" stroke:none;fill-rule:evenodd;fill:rgb(59.215689%,80.392158%,99.607843%);fill-opacity:1;" d="M 34.417969 46.082031 C 33.96875 46.53125 33.414062 46.753906 32.75 46.75 C 32.769531 46.648438 32.824219 46.5625 32.917969 46.5 C 33.441406 46.433594 33.941406 46.296875 34.417969 46.082031 Z M 34.417969 46.082031 "/>
<path style=" stroke:none;fill-rule:evenodd;fill:rgb(47.843137%,75.686276%,99.607843%);fill-opacity:1;" d="M 32.75 46.75 C 32.75 46.859375 32.695312 46.917969 32.582031 46.917969 C 32.359375 46.972656 32.140625 47.027344 31.917969 47.082031 C 32.105469 46.796875 32.382812 46.6875 32.75 46.75 Z M 32.75 46.75 "/>
<path style=" stroke:none;fill-rule:evenodd;fill:rgb(61.960787%,81.960785%,99.607843%);fill-opacity:1;" d="M 16.917969 46.75 C 17.386719 46.78125 17.832031 46.894531 18.25 47.082031 C 18.25 47.140625 18.25 47.195312 18.25 47.25 C 17.738281 47.230469 17.292969 47.0625 16.917969 46.75 Z M 16.917969 46.75 "/>
<path style=" stroke:none;fill-rule:evenodd;fill:rgb(83.529413%,92.156863%,99.607843%);fill-opacity:1;" d="M 32.582031 46.917969 C 32.347656 47.21875 32.011719 47.328125 31.582031 47.25 C 31.582031 47.195312 31.582031 47.140625 31.582031 47.082031 C 31.695312 47.082031 31.804688 47.082031 31.917969 47.082031 C 32.140625 47.027344 32.359375 46.972656 32.582031 46.917969 Z M 32.582031 46.917969 "/>
<path style=" stroke:none;fill-rule:evenodd;fill:rgb(41.568628%,72.549021%,99.607843%);fill-opacity:1;" d="M 31.582031 47.082031 C 31.582031 47.140625 31.582031 47.195312 31.582031 47.25 C 31.261719 47.359375 30.925781 47.414062 30.582031 47.417969 C 30.832031 47.121094 31.164062 47.007812 31.582031 47.082031 Z M 31.582031 47.082031 "/>
<path style=" stroke:none;fill-rule:evenodd;fill:rgb(82.745099%,91.764706%,99.607843%);fill-opacity:1;" d="M 31.582031 47.25 C 31.226562 47.5625 30.78125 47.671875 30.25 47.582031 C 30.25 47.527344 30.25 47.472656 30.25 47.417969 C 30.359375 47.417969 30.472656 47.417969 30.582031 47.417969 C 30.925781 47.414062 31.261719 47.359375 31.582031 47.25 Z M 31.582031 47.25 "/>
<path style=" stroke:none;fill-rule:evenodd;fill:rgb(40.784314%,71.764708%,99.607843%);fill-opacity:1;" d="M 18.25 47.25 C 18.25 47.195312 18.25 47.140625 18.25 47.082031 C 18.953125 47.292969 19.675781 47.429688 20.417969 47.5 C 20.507812 47.5625 20.566406 47.648438 20.582031 47.75 C 20.238281 47.746094 19.90625 47.691406 19.582031 47.582031 C 19.128906 47.507812 18.683594 47.394531 18.25 47.25 Z M 18.25 47.25 "/>
<path style=" stroke:none;fill-rule:evenodd;fill:rgb(38.82353%,71.372551%,99.607843%);fill-opacity:1;" d="M 30.25 47.417969 C 30.25 47.472656 30.25 47.527344 30.25 47.582031 C 29.816406 47.710938 29.371094 47.765625 28.917969 47.75 C 29.316406 47.539062 29.761719 47.425781 30.25 47.417969 Z M 30.25 47.417969 "/>
<path style=" stroke:none;fill-rule:evenodd;fill:rgb(72.941178%,87.450981%,99.607843%);fill-opacity:1;" d="M 19.582031 47.582031 C 19.90625 47.691406 20.238281 47.746094 20.582031 47.75 C 20.640625 47.75 20.695312 47.75 20.75 47.75 C 20.75 47.804688 20.75 47.859375 20.75 47.917969 C 20.414062 47.945312 20.078125 47.914062 19.75 47.832031 C 19.65625 47.769531 19.601562 47.6875 19.582031 47.582031 Z M 19.582031 47.582031 "/>
<path style=" stroke:none;fill-rule:evenodd;fill:rgb(41.960785%,72.941178%,99.607843%);fill-opacity:1;" d="M 20.75 47.917969 C 20.75 47.859375 20.75 47.804688 20.75 47.75 C 21.730469 47.765625 22.671875 47.878906 23.582031 48.082031 C 22.800781 48.09375 22.023438 48.039062 21.25 47.917969 C 21.082031 47.917969 20.917969 47.917969 20.75 47.917969 Z M 20.75 47.917969 "/>
<path style=" stroke:none;fill-rule:evenodd;fill:rgb(79.215688%,90.196079%,99.607843%);fill-opacity:1;" d="M 30.25 47.582031 C 29.777344 47.898438 29.222656 48.011719 28.582031 47.917969 C 28.582031 47.859375 28.582031 47.804688 28.582031 47.75 C 28.695312 47.75 28.804688 47.75 28.917969 47.75 C 29.371094 47.765625 29.816406 47.710938 30.25 47.582031 Z M 30.25 47.582031 "/>
<path style=" stroke:none;fill-rule:evenodd;fill:rgb(35.686275%,69.803923%,99.607843%);fill-opacity:1;" d="M 28.582031 47.75 C 28.582031 47.804688 28.582031 47.859375 28.582031 47.917969 C 28.472656 47.917969 28.359375 47.917969 28.25 47.917969 C 27.535156 48.035156 26.8125 48.089844 26.082031 48.082031 C 26.875 47.828125 27.707031 47.71875 28.582031 47.75 Z M 28.582031 47.75 "/>
<path style=" stroke:none;fill-rule:evenodd;fill:rgb(64.705884%,83.529413%,99.607843%);fill-opacity:1;" d="M 21.25 47.917969 C 22.023438 48.039062 22.800781 48.09375 23.582031 48.082031 C 24.417969 48.082031 25.25 48.082031 26.082031 48.082031 C 26.8125 48.089844 27.535156 48.035156 28.25 47.917969 C 28.121094 48.042969 27.957031 48.128906 27.75 48.167969 C 25.695312 48.277344 23.640625 48.277344 21.582031 48.167969 C 21.429688 48.121094 21.320312 48.035156 21.25 47.917969 Z M 21.25 47.917969 "/>
</g>
</svg>
