<svg xmlns="http://www.w3.org/2000/svg" width="50px" height="50px" viewBox="0 0 50 50">
  <path d="M 30.90625 10.398438 C 32.304688 10.476562 33.085938 11.210938 33.25 12.597656 C 33.1875 12.988281 33.074219 13.363281 32.910156 13.71875 C 29.234375 17.480469 25.539062 21.222656 21.828125 24.953125 C 25.570312 28.710938 29.296875 32.488281 33.007812 36.28125 C 33.5625 37.433594 33.351562 38.425781 32.375 39.257812 C 31.453125 39.75 30.574219 39.683594 29.734375 39.0625 C 25.519531 34.847656 21.304688 30.632812 17.089844 26.414062 C 16.351562 25.382812 16.386719 24.371094 17.1875 23.390625 C 21.304688 19.269531 25.421875 15.152344 29.539062 11.035156 C 29.949219 10.699219 30.40625 10.488281 30.90625 10.398438 Z" fill="black"/>
</svg>
