<?xml version="1.0" encoding="UTF-8"?>
<svg xmlns="http://www.w3.org/2000/svg" xmlns:xlink="http://www.w3.org/1999/xlink" width="50px" height="50px" viewBox="0 0 50 50" version="1.1">
<g id="surface1">
<path style=" stroke:none;fill-rule:evenodd;fill:rgb(98.823529%,98.823529%,98.823529%);fill-opacity:1;" d="M -0.0625 -0.046875 C 16.605469 -0.046875 33.269531 -0.046875 49.9375 -0.046875 C 49.9375 16.617188 49.9375 33.285156 49.9375 49.953125 C 33.269531 49.953125 16.605469 49.953125 -0.0625 49.953125 C -0.0625 33.285156 -0.0625 16.617188 -0.0625 -0.046875 Z M -0.0625 -0.046875 "/>
<path style=" stroke:none;fill-rule:evenodd;fill:rgb(0.784314%,0.784314%,0.784314%);fill-opacity:1;" d="M 7.4375 2.585938 C 13.855469 2.585938 20.269531 2.585938 26.6875 2.585938 C 26.6875 3.628906 26.6875 4.671875 26.6875 5.710938 C 20.4375 5.679688 14.1875 5.714844 7.9375 5.8125 C 7.898438 5.890625 7.835938 5.953125 7.75 6.007812 C 7.6875 10.59375 7.667969 15.183594 7.6875 19.773438 C 6.6875 19.773438 5.6875 19.773438 4.6875 19.773438 C 4.667969 14.925781 4.6875 10.074219 4.75 5.226562 C 5.074219 3.980469 5.972656 3.101562 7.4375 2.585938 Z M 7.4375 2.585938 "/>
<path style=" stroke:none;fill-rule:evenodd;fill:rgb(0.392157%,0.392157%,0.392157%);fill-opacity:1;" d="M 13.6875 8.835938 C 23.269531 8.820312 32.855469 8.835938 42.4375 8.886719 C 43.929688 9.367188 44.824219 10.230469 45.125 11.476562 C 45.207031 22.507812 45.207031 33.546875 45.125 44.578125 C 44.871094 45.871094 43.976562 46.765625 42.4375 47.265625 C 32.855469 47.332031 23.269531 47.332031 13.6875 47.265625 C 12.148438 46.765625 11.253906 45.871094 11 44.578125 C 10.917969 33.546875 10.917969 22.507812 11 11.476562 C 11.324219 10.230469 12.222656 9.351562 13.6875 8.835938 Z M 13.6875 8.835938 "/>
<path style=" stroke:none;fill-rule:evenodd;fill:rgb(99.215686%,99.215686%,99.215686%);fill-opacity:1;" d="M 14.1875 11.960938 C 23.46875 11.929688 32.738281 11.964844 42 12.0625 C 42.144531 17.390625 42.207031 22.730469 42.1875 28.078125 C 42.167969 33.351562 42.144531 38.625 42.125 43.898438 C 42.039062 43.949219 41.976562 44.011719 41.9375 44.09375 C 32.6875 44.222656 23.4375 44.222656 14.1875 44.09375 C 14.148438 44.011719 14.085938 43.949219 14 43.898438 C 13.917969 33.351562 13.917969 22.804688 14 12.257812 C 14.0625 12.15625 14.125 12.058594 14.1875 11.960938 Z M 14.1875 11.960938 "/>
</g>
</svg>
