<?xml version="1.0" encoding="UTF-8"?>
<svg xmlns="http://www.w3.org/2000/svg" xmlns:xlink="http://www.w3.org/1999/xlink" width="100px" height="100px" viewBox="0 0 100 100" version="1.1">
<g id="surface1">
<path style=" stroke:none;fill-rule:evenodd;fill:rgb(99.215686%,98.823529%,98.431373%);fill-opacity:1;" d="M 94.972656 0.152344 C 94.972656 0.0507812 94.972656 -0.0507812 94.972656 -0.152344 C 96.601562 -0.152344 98.234375 -0.152344 99.863281 -0.152344 C 99.863281 1.566406 99.863281 3.28125 99.863281 5 C 98.828125 2.632812 97.195312 1.015625 94.972656 0.152344 Z M 94.972656 0.152344 "/>
<path style=" stroke:none;fill-rule:evenodd;fill:rgb(100%,49.803922%,15.294118%);fill-opacity:1;" d="M 94.972656 0.152344 C 97.195312 1.015625 98.828125 2.632812 99.863281 5 C 99.863281 8.839844 99.863281 12.675781 99.863281 16.515625 C 94.671875 19.332031 89.238281 21.503906 83.558594 23.03125 C 77.535156 24.367188 71.464844 25.425781 65.351562 26.210938 C 65.4375 25.140625 65.347656 24.128906 65.082031 23.183594 C 63.414062 13.953125 58.339844 9 49.863281 8.332031 C 40.929688 9.207031 35.765625 14.5625 34.375 24.394531 C 34.527344 25.484375 34.121094 26.089844 33.152344 26.210938 C 21.554688 25.160156 10.460938 22.03125 -0.136719 16.816406 C -0.136719 12.878906 -0.136719 8.9375 -0.136719 5 C 0.816406 2.878906 2.265625 1.3125 4.210938 0.304688 C 34.464844 0.152344 64.71875 0.101562 94.972656 0.152344 Z M 94.972656 0.152344 "/>
<path style=" stroke:none;fill-rule:evenodd;fill:rgb(100%,50.196081%,16.470589%);fill-opacity:1;" d="M 64.808594 24.089844 C 64.816406 33.421875 60.832031 39.433594 52.851562 42.121094 C 44.589844 43.246094 38.835938 39.558594 35.597656 31.0625 C 35.246094 29.460938 35.019531 27.847656 34.917969 26.210938 C 35.257812 17.523438 39.152344 11.917969 46.601562 9.394531 C 55.058594 8.222656 60.902344 12.011719 64.128906 20.757812 C 64.246094 21.9375 64.46875 23.046875 64.808594 24.089844 Z M 64.808594 24.089844 "/>
<path style=" stroke:none;fill-rule:evenodd;fill:rgb(100%,93.333334%,88.627452%);fill-opacity:1;" d="M 65.082031 23.183594 C 64.835938 23.398438 64.746094 23.699219 64.808594 24.089844 C 64.46875 23.046875 64.246094 21.9375 64.128906 20.757812 C 60.902344 12.011719 55.058594 8.222656 46.601562 9.394531 C 39.152344 11.917969 35.257812 17.523438 34.917969 26.210938 C 34.738281 25.605469 34.554688 25 34.375 24.394531 C 35.765625 14.5625 40.929688 9.207031 49.863281 8.332031 C 58.339844 9 63.414062 13.953125 65.082031 23.183594 Z M 65.082031 23.183594 "/>
<path style=" stroke:none;fill-rule:evenodd;fill:rgb(100%,97.647059%,95.686275%);fill-opacity:1;" d="M 47.148438 14.089844 C 49.140625 14.039062 51.132812 14.089844 53.125 14.242188 C 54.210938 15.257812 54.480469 16.519531 53.941406 18.03125 C 51.507812 18.375 49.0625 18.425781 46.601562 18.183594 C 45.773438 16.652344 45.953125 15.289062 47.148438 14.089844 Z M 47.148438 14.089844 "/>
<path style=" stroke:none;fill-rule:evenodd;fill:rgb(100%,98.823529%,98.431373%);fill-opacity:1;" d="M 56.386719 15.605469 C 57.394531 15.6875 58.164062 16.191406 58.695312 17.121094 C 58.875 22.574219 58.875 28.03125 58.695312 33.484375 C 58.378906 33.839844 58.0625 34.191406 57.746094 34.546875 C 52.671875 34.746094 47.601562 34.746094 42.527344 34.546875 C 42.210938 34.191406 41.894531 33.839844 41.574219 33.484375 C 41.394531 28.132812 41.394531 22.777344 41.574219 17.425781 C 42 16.101562 42.863281 15.59375 44.15625 15.910156 C 43.921875 17.40625 44.28125 18.671875 45.246094 19.695312 C 46.847656 20.039062 48.476562 20.1875 50.136719 20.152344 C 53.972656 21.40625 56.058594 19.890625 56.386719 15.605469 Z M 56.386719 15.605469 "/>
<path style=" stroke:none;fill-rule:evenodd;fill:rgb(99.607843%,99.607843%,99.607843%);fill-opacity:1;" d="M 99.863281 16.515625 C 99.863281 44.292969 99.863281 72.070312 99.863281 99.847656 C 66.53125 99.847656 33.199219 99.847656 -0.136719 99.847656 C -0.136719 72.171875 -0.136719 44.496094 -0.136719 16.816406 C 10.460938 22.03125 21.554688 25.160156 33.152344 26.210938 C 34.121094 26.089844 34.527344 25.484375 34.375 24.394531 C 34.554688 25 34.738281 25.605469 34.917969 26.210938 C 35.019531 27.847656 35.246094 29.460938 35.597656 31.0625 C 38.835938 39.558594 44.589844 43.246094 52.851562 42.121094 C 60.832031 39.433594 64.816406 33.421875 64.808594 24.089844 C 64.746094 23.699219 64.835938 23.398438 65.082031 23.183594 C 65.347656 24.128906 65.4375 25.140625 65.351562 26.210938 C 71.464844 25.425781 77.535156 24.367188 83.558594 23.03125 C 89.238281 21.503906 94.671875 19.332031 99.863281 16.515625 Z M 99.863281 16.515625 "/>
<path style=" stroke:none;fill-rule:evenodd;fill:rgb(100%,52.549022%,20.392157%);fill-opacity:1;" d="M 48.234375 22.574219 C 52.019531 22.835938 53.285156 24.957031 52.039062 28.9375 C 52.757812 29.894531 53.527344 30.804688 54.347656 31.667969 C 54.480469 31.953125 54.523438 32.257812 54.484375 32.574219 C 54.199219 32.621094 53.925781 32.570312 53.667969 32.425781 C 52.894531 31.511719 52.078125 30.652344 51.222656 29.847656 C 47.546875 31.351562 45.691406 29.9375 45.652344 25.605469 C 46.203125 24.238281 47.0625 23.226562 48.234375 22.574219 Z M 48.234375 22.574219 "/>
<path style=" stroke:none;fill-rule:evenodd;fill:rgb(100%,98.431373%,97.647059%);fill-opacity:1;" d="M 48.503906 23.789062 C 50.820312 23.890625 51.769531 25.207031 51.359375 27.726562 C 50.667969 29.113281 49.625 29.566406 48.234375 29.089844 C 46.96875 28.214844 46.5625 26.949219 47.011719 25.304688 C 47.480469 24.726562 47.980469 24.222656 48.503906 23.789062 Z M 48.503906 23.789062 "/>
</g>
</svg>
