<?xml version="1.0" encoding="UTF-8"?>
<svg xmlns="http://www.w3.org/2000/svg" xmlns:xlink="http://www.w3.org/1999/xlink" width="100px" height="100px" viewBox="0 0 100 100" version="1.1">
<g id="surface1">
<path style=" stroke:none;fill-rule:evenodd;fill:rgb(99.607843%,99.607843%,99.607843%);fill-opacity:1;" d="M -0.101562 -0.113281 C 33.230469 -0.113281 66.566406 -0.113281 99.898438 -0.113281 C 99.898438 33.21875 99.898438 66.554688 99.898438 99.886719 C 66.566406 99.886719 33.230469 99.886719 -0.101562 99.886719 C -0.101562 72.132812 -0.101562 44.382812 -0.101562 16.628906 C 2.480469 18.230469 5.1875 19.550781 8.027344 20.589844 C 15.851562 23.191406 23.777344 25 31.808594 26.019531 C 32.488281 26.167969 33.164062 26.167969 33.839844 26.019531 C 34.175781 23.707031 34.617188 21.40625 35.164062 19.117188 C 39.320312 10.222656 45.789062 6.945312 54.574219 9.277344 C 61.480469 12.253906 65.003906 17.871094 65.140625 26.132812 C 74.800781 25.308594 84.21875 23.160156 93.394531 19.683594 C 95.308594 18.804688 97.207031 17.863281 99.085938 16.855469 C 99.242188 16.578125 99.347656 16.277344 99.390625 15.949219 C 99.578125 12.320312 99.507812 8.699219 99.1875 5.089844 C 98.277344 3.246094 97.023438 1.777344 95.425781 0.679688 C 65.21875 0.304688 35 0.226562 4.777344 0.453125 C 2.234375 1.210938 0.605469 2.984375 -0.101562 5.769531 C -0.101562 3.808594 -0.101562 1.847656 -0.101562 -0.113281 Z M -0.101562 -0.113281 "/>
<path style=" stroke:none;fill-rule:evenodd;fill:rgb(99.607843%,32.549021%,72.941178%);fill-opacity:1;" d="M -0.101562 16.628906 C -0.101562 13.007812 -0.101562 9.390625 -0.101562 5.769531 C 0.605469 2.984375 2.234375 1.210938 4.777344 0.453125 C 35 0.226562 65.21875 0.304688 95.425781 0.679688 C 97.023438 1.777344 98.277344 3.246094 99.1875 5.089844 C 99.507812 8.699219 99.578125 12.320312 99.390625 15.949219 C 99.347656 16.277344 99.242188 16.578125 99.085938 16.855469 C 97.207031 17.863281 95.308594 18.804688 93.394531 19.683594 C 84.21875 23.160156 74.800781 25.308594 65.140625 26.132812 C 65.003906 17.871094 61.480469 12.253906 54.574219 9.277344 C 45.789062 6.945312 39.320312 10.222656 35.164062 19.117188 C 34.617188 21.40625 34.175781 23.707031 33.839844 26.019531 C 33.164062 26.167969 32.488281 26.167969 31.808594 26.019531 C 23.777344 25 15.851562 23.191406 8.027344 20.589844 C 5.1875 19.550781 2.480469 18.230469 -0.101562 16.628906 Z M -0.101562 16.628906 "/>
<path style=" stroke:none;fill-rule:evenodd;fill:rgb(99.607843%,32.941177%,72.941178%);fill-opacity:1;" d="M 47.257812 9.617188 C 48.890625 9.746094 50.515625 9.746094 52.132812 9.617188 C 53.882812 9.875 55.511719 10.515625 57.011719 11.539062 C 63.816406 16.644531 65.882812 23.542969 63.210938 32.238281 C 60.59375 38.617188 56.125 41.933594 49.796875 42.195312 C 43.222656 41.890625 38.546875 38.421875 35.773438 31.789062 C 33.332031 21.722656 36.347656 14.519531 44.816406 10.179688 C 45.609375 9.875 46.421875 9.683594 47.257812 9.617188 Z M 47.257812 9.617188 "/>
<path style=" stroke:none;fill-rule:evenodd;fill:rgb(100%,49.411765%,78.823531%);fill-opacity:1;" d="M 47.257812 9.617188 C 48.882812 9.3125 50.507812 9.3125 52.132812 9.617188 C 50.515625 9.746094 48.890625 9.746094 47.257812 9.617188 Z M 47.257812 9.617188 "/>
<path style=" stroke:none;fill-rule:evenodd;fill:rgb(100%,98.823529%,99.607843%);fill-opacity:1;" d="M 43.597656 16.402344 C 45.765625 16.363281 47.933594 16.402344 50.101562 16.515625 C 50.210938 18.367188 50.382812 20.214844 50.609375 22.058594 C 50.925781 22.480469 51.300781 22.820312 51.726562 23.078125 C 53.269531 23.117188 54.792969 23.230469 56.300781 23.417969 C 56.4375 26.808594 56.4375 30.203125 56.300781 33.597656 C 56.070312 34.074219 55.765625 34.488281 55.386719 34.839844 C 51.476562 35.214844 47.546875 35.289062 43.597656 35.066406 C 43.023438 34.726562 42.582031 34.238281 42.277344 33.597656 C 42.140625 28.394531 42.140625 23.191406 42.277344 17.988281 C 42.621094 17.339844 43.0625 16.8125 43.597656 16.402344 Z M 43.597656 16.402344 "/>
<path style=" stroke:none;fill-rule:evenodd;fill:rgb(100%,97.647059%,98.823529%);fill-opacity:1;" d="M 52.539062 16.402344 C 52.753906 16.367188 52.957031 16.40625 53.152344 16.515625 C 54.199219 17.683594 55.25 18.855469 56.300781 20.023438 C 56.441406 20.3125 56.40625 20.578125 56.199219 20.816406 C 52.78125 21.644531 51.558594 20.175781 52.539062 16.402344 Z M 52.539062 16.402344 "/>
<path style=" stroke:none;fill-rule:evenodd;fill:rgb(100%,35.294119%,73.725492%);fill-opacity:1;" d="M 46.238281 22.058594 C 48.464844 21.746094 49.75 22.804688 50.101562 25.226562 C 50.09375 25.664062 50.027344 26.078125 49.898438 26.46875 C 51.152344 27.867188 52.40625 29.261719 53.660156 30.65625 C 54.457031 31.859375 54.21875 32.6875 52.945312 33.144531 C 52.589844 33.011719 52.25 32.824219 51.929688 32.578125 C 50.671875 31.179688 49.417969 29.785156 48.171875 28.394531 C 45.402344 28.820312 44.082031 27.460938 44.207031 24.320312 C 45.015625 24.648438 45.691406 25.214844 46.238281 26.019531 C 47.023438 25.871094 47.632812 25.382812 48.070312 24.546875 C 47.371094 23.773438 46.761719 22.945312 46.238281 22.058594 Z M 46.238281 22.058594 "/>
</g>
</svg>
