<?xml version="1.0" encoding="UTF-8"?>
<svg xmlns="http://www.w3.org/2000/svg" xmlns:xlink="http://www.w3.org/1999/xlink" width="100px" height="100px" viewBox="0 0 100 100" version="1.1">
<g id="surface1">
<path style=" stroke:none;fill-rule:evenodd;fill:rgb(95.686275%,92.54902%,94.117647%);fill-opacity:1;" d="M -0.101562 -0.113281 C 31.539062 -0.113281 63.175781 -0.113281 94.816406 -0.113281 C 94.816406 -0.0390625 94.816406 0.0390625 94.816406 0.113281 C 64.804688 0.0742188 34.789062 0.113281 4.777344 0.226562 C 2.234375 0.984375 0.605469 2.761719 -0.101562 5.554688 C -0.101562 3.664062 -0.101562 1.777344 -0.101562 -0.113281 Z M -0.101562 -0.113281 "/>
<path style=" stroke:none;fill-rule:evenodd;fill:rgb(99.215686%,98.823529%,98.823529%);fill-opacity:1;" d="M 94.816406 -0.113281 C 96.511719 -0.113281 98.203125 -0.113281 99.898438 -0.113281 C 99.898438 1.777344 99.898438 3.664062 99.898438 5.554688 C 99.761719 5.554688 99.628906 5.554688 99.492188 5.554688 C 98.898438 2.699219 97.339844 0.886719 94.816406 0.113281 C 94.816406 0.0390625 94.816406 -0.0390625 94.816406 -0.113281 Z M 94.816406 -0.113281 "/>
<path style=" stroke:none;fill-rule:evenodd;fill:rgb(56.078434%,2.745098%,26.274511%);fill-opacity:1;" d="M 94.816406 0.113281 C 97.339844 0.886719 98.898438 2.699219 99.492188 5.554688 C 99.761719 9.257812 99.761719 12.964844 99.492188 16.667969 C 88.601562 21.894531 77.21875 24.996094 65.34375 25.964844 C 64.949219 16.945312 60.882812 11.164062 53.152344 8.617188 C 46.820312 7.316406 41.566406 9.398438 37.398438 14.851562 C 35.246094 18.164062 34.128906 21.867188 34.042969 25.964844 C 23.6875 25.035156 13.59375 22.578125 3.761719 18.59375 C 2.460938 17.871094 1.175781 17.152344 -0.101562 16.441406 C -0.101562 12.8125 -0.101562 9.183594 -0.101562 5.554688 C 0.605469 2.761719 2.234375 0.984375 4.777344 0.226562 C 34.789062 0.113281 64.804688 0.0742188 94.816406 0.113281 Z M 94.816406 0.113281 "/>
<path style=" stroke:none;fill-rule:evenodd;fill:rgb(73.333335%,72.941178%,72.941178%);fill-opacity:1;" d="M 99.492188 5.554688 C 99.628906 5.554688 99.761719 5.554688 99.898438 5.554688 C 99.898438 9.257812 99.898438 12.964844 99.898438 16.667969 C 99.761719 16.667969 99.628906 16.667969 99.492188 16.667969 C 99.761719 12.964844 99.761719 9.257812 99.492188 5.554688 Z M 99.492188 5.554688 "/>
<path style=" stroke:none;fill-rule:evenodd;fill:rgb(99.607843%,99.607843%,99.607843%);fill-opacity:1;" d="M 99.492188 16.667969 C 99.628906 16.667969 99.761719 16.667969 99.898438 16.667969 C 99.898438 44.40625 99.898438 72.148438 99.898438 99.886719 C 66.566406 99.886719 33.230469 99.886719 -0.101562 99.886719 C -0.101562 72.070312 -0.101562 44.253906 -0.101562 16.441406 C 1.175781 17.152344 2.460938 17.871094 3.761719 18.59375 C 13.59375 22.578125 23.6875 25.035156 34.042969 25.964844 C 34.128906 21.867188 35.246094 18.164062 37.398438 14.851562 C 41.566406 9.398438 46.820312 7.316406 53.152344 8.617188 C 60.882812 11.164062 64.949219 16.945312 65.34375 25.964844 C 77.21875 24.996094 88.601562 21.894531 99.492188 16.667969 Z M 99.492188 16.667969 "/>
<path style=" stroke:none;fill-rule:evenodd;fill:rgb(56.470591%,4.313726%,26.666668%);fill-opacity:1;" d="M 47.460938 9.183594 C 55.359375 8.617188 60.8125 12.398438 63.820312 20.523438 C 65.617188 28.265625 63.6875 34.578125 58.027344 39.457031 C 52.253906 43.058594 46.5625 42.90625 40.957031 39.003906 C 35.144531 33.441406 33.621094 26.675781 36.382812 18.707031 C 38.757812 13.597656 42.453125 10.421875 47.460938 9.183594 Z M 47.460938 9.183594 "/>
<path style=" stroke:none;fill-rule:evenodd;fill:rgb(98.823529%,97.647059%,98.039216%);fill-opacity:1;" d="M 48.273438 16.667969 C 52.246094 16.304688 54.921875 18.191406 56.300781 22.335938 C 56.4375 23.316406 56.4375 24.300781 56.300781 25.285156 C 55.835938 24.515625 55.191406 24.136719 54.371094 24.148438 C 53.679688 20.097656 51.511719 18.472656 47.867188 19.273438 C 44.980469 20.765625 43.996094 23.222656 44.917969 26.644531 C 46.269531 29.628906 48.371094 30.609375 51.21875 29.59375 C 51.445312 29.933594 51.617188 30.308594 51.726562 30.726562 C 49.917969 32.613281 47.953125 32.800781 45.832031 31.292969 C 42.515625 28.660156 41.601562 25.222656 43.089844 20.976562 C 44.234375 18.621094 45.964844 17.183594 48.273438 16.667969 Z M 48.273438 16.667969 "/>
<path style=" stroke:none;fill-rule:evenodd;fill:rgb(98.823529%,97.647059%,98.039216%);fill-opacity:1;" d="M 48.882812 22.109375 C 51.195312 22.269531 51.941406 23.554688 51.117188 25.964844 C 49.765625 27.285156 48.578125 27.136719 47.5625 25.511719 C 47.136719 23.917969 47.578125 22.785156 48.882812 22.109375 Z M 48.882812 22.109375 "/>
<path style=" stroke:none;fill-rule:evenodd;fill:rgb(99.215686%,98.431373%,98.823529%);fill-opacity:1;" d="M 53.152344 24.828125 C 54.28125 24.585938 55.195312 24.960938 55.894531 25.964844 C 56.203125 27.808594 55.964844 29.550781 55.183594 31.179688 C 56.335938 31.820312 57.488281 32.464844 58.636719 33.105469 C 59.359375 33.695312 59.628906 34.488281 59.453125 35.488281 C 55.792969 35.488281 52.132812 35.488281 48.476562 35.488281 C 48.335938 34.628906 48.539062 33.910156 49.085938 33.332031 C 50.292969 32.472656 51.578125 31.789062 52.945312 31.292969 C 52.160156 30.246094 51.820312 29.039062 51.929688 27.664062 C 51.964844 27.097656 52 26.53125 52.03125 25.964844 C 52.382812 25.53125 52.757812 25.15625 53.152344 24.828125 Z M 53.152344 24.828125 "/>
</g>
</svg>
