<?xml version="1.0" encoding="UTF-8"?>
<svg xmlns="http://www.w3.org/2000/svg" xmlns:xlink="http://www.w3.org/1999/xlink" width="100px" height="100px" viewBox="0 0 100 100" version="1.1">
<g id="surface1">
<path style=" stroke:none;fill-rule:evenodd;fill:rgb(11.372549%,58.823532%,99.607843%);fill-opacity:1;" d="M 5.554688 0.5625 C 35.292969 0.574219 65.054688 0.574219 94.847656 0.5625 C 97.414062 1.582031 99.097656 3.539062 99.898438 6.433594 C 99.898438 9.96875 99.898438 13.507812 99.898438 17.042969 C 88.917969 22.648438 77.402344 25.734375 65.355469 26.296875 C 65.09375 17.628906 61.253906 12.023438 53.839844 9.480469 C 47.5625 8.054688 42.277344 9.976562 37.980469 15.238281 C 37.066406 16.523438 36.359375 17.953125 35.859375 19.527344 C 35.046875 21.742188 34.640625 24.074219 34.644531 26.523438 C 22.863281 25.753906 11.550781 22.707031 0.707031 17.382812 C 0.605469 17.269531 0.503906 17.15625 0.402344 17.042969 C 0.371094 15.273438 0.335938 13.507812 0.304688 11.738281 C 0.28125 9.65625 0.382812 7.585938 0.605469 5.53125 C 1.472656 2.867188 3.121094 1.214844 5.554688 0.5625 Z M 5.554688 0.5625 "/>
<path style=" stroke:none;fill-rule:evenodd;fill:rgb(88.627452%,94.509804%,100%);fill-opacity:1;" d="M 65.355469 26.296875 C 65.285156 26.296875 65.21875 26.296875 65.152344 26.296875 C 64.757812 18.972656 61.59375 13.742188 55.65625 10.609375 C 46.84375 7.785156 40.3125 10.90625 36.0625 19.976562 C 36.09375 19.753906 36.027344 19.601562 35.859375 19.527344 C 36.359375 17.953125 37.066406 16.523438 37.980469 15.238281 C 42.277344 9.976562 47.5625 8.054688 53.839844 9.480469 C 61.253906 12.023438 65.09375 17.628906 65.355469 26.296875 Z M 65.355469 26.296875 "/>
<path style=" stroke:none;fill-rule:evenodd;fill:rgb(12.156863%,58.823532%,100%);fill-opacity:1;" d="M 65.152344 26.296875 C 64.671875 33.28125 61.640625 38.359375 56.0625 41.535156 C 48.164062 44.664062 41.867188 42.367188 37.171875 34.648438 C 34.785156 29.949219 34.414062 25.054688 36.0625 19.976562 C 40.3125 10.90625 46.84375 7.785156 55.65625 10.609375 C 61.59375 13.742188 64.757812 18.972656 65.152344 26.296875 Z M 65.152344 26.296875 "/>
<path style=" stroke:none;fill-rule:evenodd;fill:rgb(99.607843%,99.607843%,99.607843%);fill-opacity:1;" d="M -0.101562 -0.113281 C 33.230469 -0.113281 66.566406 -0.113281 99.898438 -0.113281 C 99.898438 2.070312 99.898438 4.25 99.898438 6.433594 C 99.097656 3.539062 97.414062 1.582031 94.847656 0.5625 C 66.957031 0.414062 39.042969 0.261719 11.109375 0.113281 C 9.238281 0.261719 7.386719 0.410156 5.554688 0.5625 C 3.121094 1.214844 1.472656 2.867188 0.605469 5.53125 C 0.382812 7.585938 0.28125 9.65625 0.304688 11.738281 C 0.335938 13.507812 0.371094 15.273438 0.402344 17.042969 C 0.503906 17.15625 0.605469 17.269531 0.707031 17.382812 C 11.550781 22.707031 22.863281 25.753906 34.644531 26.523438 C 34.640625 24.074219 35.046875 21.742188 35.859375 19.527344 C 36.027344 19.601562 36.09375 19.753906 36.0625 19.976562 C 34.414062 25.054688 34.785156 29.949219 37.171875 34.648438 C 41.867188 42.367188 48.164062 44.664062 56.0625 41.535156 C 61.640625 38.359375 64.671875 33.28125 65.152344 26.296875 C 65.21875 26.296875 65.285156 26.296875 65.355469 26.296875 C 77.402344 25.734375 88.917969 22.648438 99.898438 17.042969 C 99.898438 44.65625 99.898438 72.273438 99.898438 99.886719 C 66.566406 99.886719 33.230469 99.886719 -0.101562 99.886719 C -0.101562 66.554688 -0.101562 33.21875 -0.101562 -0.113281 Z M -0.101562 -0.113281 "/>
<path style=" stroke:none;fill-rule:evenodd;fill:rgb(88.627452%,92.941177%,96.470588%);fill-opacity:1;" d="M 94.847656 0.5625 C 65.054688 0.574219 35.292969 0.574219 5.554688 0.5625 C 7.386719 0.410156 9.238281 0.261719 11.109375 0.113281 C 39.042969 0.261719 66.957031 0.414062 94.847656 0.5625 Z M 94.847656 0.5625 "/>
<path style=" stroke:none;fill-rule:evenodd;fill:rgb(98.823529%,99.215686%,100%);fill-opacity:1;" d="M 47.171875 18.847656 C 48.726562 18.773438 50.273438 18.847656 51.816406 19.074219 C 51.234375 21.046875 50.023438 21.6875 48.183594 20.992188 C 47.710938 20.355469 47.375 19.640625 47.171875 18.847656 Z M 47.171875 18.847656 "/>
<path style=" stroke:none;fill-rule:evenodd;fill:rgb(98.039216%,98.823529%,100%);fill-opacity:1;" d="M 47.171875 22.6875 C 48.789062 22.648438 50.40625 22.6875 52.019531 22.800781 C 53.265625 23.289062 54.109375 24.230469 54.546875 25.621094 C 54.679688 27.878906 54.679688 30.136719 54.546875 32.394531 C 54.378906 32.582031 54.207031 32.769531 54.039062 32.957031 C 51.097656 33.324219 48.132812 33.402344 45.152344 33.183594 C 44.914062 32.917969 44.679688 32.65625 44.445312 32.394531 C 44.308594 30.210938 44.308594 28.027344 44.445312 25.847656 C 44.851562 24.226562 45.761719 23.171875 47.171875 22.6875 Z M 47.171875 22.6875 "/>
<path style=" stroke:none;fill-rule:evenodd;fill:rgb(18.82353%,60.784316%,100%);fill-opacity:1;" d="M 48.789062 23.816406 C 49.257812 23.816406 49.730469 23.816406 50.203125 23.816406 C 50.203125 24.191406 50.203125 24.566406 50.203125 24.945312 C 51.449219 25.003906 51.648438 25.492188 50.808594 26.410156 C 50.261719 26.421875 49.722656 26.308594 49.191406 26.070312 C 49.058594 26.148438 48.921875 26.222656 48.789062 26.296875 C 49.667969 26.808594 50.507812 27.410156 51.3125 28.105469 C 51.667969 29.273438 51.367188 30.101562 50.402344 30.585938 C 50.210938 30.9375 50.144531 31.3125 50.203125 31.714844 C 49.730469 31.714844 49.257812 31.714844 48.789062 31.714844 C 48.789062 31.339844 48.789062 30.964844 48.789062 30.585938 C 48.15625 30.671875 47.6875 30.410156 47.375 29.796875 C 47.425781 29.511719 47.5625 29.285156 47.777344 29.121094 C 50.371094 29.339844 50.441406 28.886719 47.980469 27.765625 C 47.035156 26.414062 47.273438 25.398438 48.6875 24.71875 C 48.785156 24.425781 48.820312 24.125 48.789062 23.816406 Z M 48.789062 23.816406 "/>
</g>
</svg>
