<?xml version="1.0" encoding="UTF-8"?>
<svg xmlns="http://www.w3.org/2000/svg" xmlns:xlink="http://www.w3.org/1999/xlink" width="50px" height="50px" viewBox="0 0 50 50" version="1.1">
  <defs>
    <filter id="alpha" filterUnits="objectBoundingBox" x="0%" y="0%" width="100%" height="100%">
      <feColorMatrix type="matrix" in="SourceGraphic" values="0 0 0 0 1 0 0 0 0 1 0 0 0 0 1 0 0 0 1 0" />
    </filter>
    <mask id="mask0">
      <g filter="url(#alpha)">
        <rect x="0" y="0" width="50" height="50" style="fill:rgb(0%,0%,0%);fill-opacity:0.976471;stroke:none;" />
      </g>
    </mask>
    <clipPath id="clip1">
      <rect x="0" y="0" width="50" height="50" />
    </clipPath>
    <mask id="mask1">
      <g filter="url(#alpha)">
        <rect x="0" y="0" width="50" height="50" style="fill:rgb(0%,0%,0%);fill-opacity:0.968627;stroke:none;" />
      </g>
    </mask>
    <clipPath id="clip2">
      <rect x="0" y="0" width="50" height="50" />
    </clipPath>
  </defs>
  <g clip-path="url(#clip1)">
    <path d="M 5.90625 -0.046875 C 12.289062 -0.046875 18.667969 -0.046875 25.046875 -0.046875 C 26.808594 0.445312 27.347656 1.550781 26.660156 3.273438 C 26.40625 3.652344 26.066406 3.929688 25.632812 4.101562 C 19 4.230469 12.359375 4.296875 5.710938 4.296875 C 4.90625 4.550781 4.398438 5.089844 4.199219 5.90625 C 4.132812 18.601562 4.132812 31.296875 4.199219 43.992188 C 4.398438 44.8125 4.90625 45.351562 5.710938 45.605469 C 12.359375 45.605469 19 45.671875 25.632812 45.800781 C 26.960938 46.53125 27.304688 47.585938 26.660156 48.976562 C 26.257812 49.539062 25.722656 49.867188 25.046875 49.953125 C 18.667969 49.953125 12.289062 49.953125 5.90625 49.953125 C 2.699219 49.574219 0.714844 47.816406 -0.046875 44.679688 C -0.046875 31.527344 -0.046875 18.375 -0.046875 5.226562 C 0.714844 2.085938 2.699219 0.328125 5.90625 -0.046875 Z" fill="black" fill-rule="evenodd" />
  </g>
  <g clip-path="url(#clip2)">
    <path d="M 49.953125 24.367188 C 49.953125 24.757812 49.953125 25.148438 49.953125 25.539062 C 49.839844 25.757812 49.726562 25.984375 49.609375 26.21875 C 45.332031 30.402344 41.082031 34.617188 36.867188 38.867188 C 35.664062 39.777344 34.539062 39.695312 33.496094 38.625 C 33.039062 37.808594 33.039062 36.996094 33.496094 36.179688 C 36.511719 33.136719 39.554688 30.125 42.625 27.148438 C 34.554688 27.117188 26.480469 27.082031 18.40625 27.050781 C 16.945312 26.746094 16.34375 25.851562 16.601562 24.367188 C 16.875 23.472656 17.476562 22.96875 18.40625 22.851562 C 26.480469 22.820312 34.554688 22.785156 42.625 22.753906 C 39.554688 19.777344 36.511719 16.765625 33.496094 13.71875 C 32.90625 12.582031 33.085938 11.585938 34.03125 10.742188 C 35.042969 10.21875 35.988281 10.316406 36.867188 11.035156 C 41.082031 15.285156 45.332031 19.5 49.609375 23.679688 C 49.726562 23.917969 49.839844 24.144531 49.953125 24.367188 Z" fill="black" fill-rule="evenodd" />
  </g>
</svg>

