<?xml version="1.0" encoding="UTF-8"?>
<svg xmlns="http://www.w3.org/2000/svg" xmlns:xlink="http://www.w3.org/1999/xlink" width="100px" height="100px" viewBox="0 0 100 100" version="1.1">
<g id="surface1">
<path style=" stroke:none;fill-rule:evenodd;fill:rgb(99.607843%,99.607843%,99.607843%);fill-opacity:1;" d="M -0.101562 -0.113281 C 1.382812 -0.113281 2.867188 -0.113281 4.351562 -0.113281 C 2.601562 0.757812 1.355469 2.203125 0.605469 4.222656 C 0.28125 8.167969 0.214844 12.125 0.40625 16.097656 C 2.933594 17.734375 5.601562 19.066406 8.402344 20.089844 C 16.148438 22.707031 24.042969 24.535156 32.085938 25.570312 C 32.757812 25.722656 33.433594 25.722656 34.109375 25.570312 C 34.464844 18.148438 37.566406 12.746094 43.421875 9.359375 C 51.507812 6.074219 58.085938 8.320312 63.15625 16.097656 C 64.5625 19.089844 65.273438 22.285156 65.285156 25.683594 C 74.90625 24.855469 84.285156 22.6875 93.421875 19.179688 C 95.394531 18.253906 97.351562 17.265625 99.292969 16.210938 C 99.425781 14.402344 99.492188 12.574219 99.492188 10.730469 C 99.515625 8.625 99.414062 6.53125 99.191406 4.453125 C 98.53125 2.300781 97.28125 0.777344 95.445312 -0.113281 C 96.929688 -0.113281 98.414062 -0.113281 99.898438 -0.113281 C 99.898438 33.21875 99.898438 66.550781 99.898438 99.886719 C 66.566406 99.886719 33.230469 99.886719 -0.101562 99.886719 C -0.101562 66.550781 -0.101562 33.21875 -0.101562 -0.113281 Z M -0.101562 -0.113281 "/>
<path style=" stroke:none;fill-rule:evenodd;fill:rgb(79.607844%,39.607844%,99.607843%);fill-opacity:1;" d="M 4.351562 -0.113281 C 34.714844 -0.113281 65.082031 -0.113281 95.445312 -0.113281 C 97.28125 0.777344 98.53125 2.300781 99.191406 4.453125 C 99.414062 6.53125 99.515625 8.625 99.492188 10.730469 C 99.492188 12.574219 99.425781 14.402344 99.292969 16.210938 C 97.351562 17.265625 95.394531 18.253906 93.421875 19.179688 C 84.285156 22.6875 74.90625 24.855469 65.285156 25.683594 C 65.273438 22.285156 64.5625 19.089844 63.15625 16.097656 C 58.085938 8.320312 51.507812 6.074219 43.421875 9.359375 C 37.566406 12.746094 34.464844 18.148438 34.109375 25.570312 C 33.433594 25.722656 32.757812 25.722656 32.085938 25.570312 C 24.042969 24.535156 16.148438 22.707031 8.402344 20.089844 C 5.601562 19.066406 2.933594 17.734375 0.40625 16.097656 C 0.214844 12.125 0.28125 8.167969 0.605469 4.222656 C 1.355469 2.203125 2.601562 0.757812 4.351562 -0.113281 Z M 4.351562 -0.113281 "/>
<path style=" stroke:none;fill-rule:evenodd;fill:rgb(79.607844%,40.000001%,99.607843%);fill-opacity:1;" d="M 47.671875 8.789062 C 52.121094 8.21875 56.035156 9.550781 59.414062 12.785156 C 64.425781 18.132812 65.742188 24.488281 63.359375 31.847656 C 61.191406 37.261719 57.515625 40.570312 52.328125 41.78125 C 45.171875 42.496094 39.875 39.335938 36.4375 32.304688 C 33.40625 21.859375 36.273438 14.285156 45.039062 9.589844 C 45.9375 9.289062 46.8125 9.023438 47.671875 8.789062 Z M 47.671875 8.789062 "/>
<path style=" stroke:none;fill-rule:evenodd;fill:rgb(99.607843%,99.215686%,100%);fill-opacity:1;" d="M 46.863281 19.292969 C 50.464844 19.132812 51.78125 21.035156 50.808594 25 C 50.28125 25.976562 49.671875 26.890625 48.988281 27.738281 C 48.421875 28.960938 48.21875 30.253906 48.378906 31.621094 C 48.652344 32.683594 49.023438 33.671875 49.492188 34.589844 C 47.332031 34.628906 45.175781 34.589844 43.015625 34.476562 C 42.0625 32.761719 42.265625 31.242188 43.625 29.910156 C 44.605469 29.253906 45.585938 28.609375 46.558594 27.96875 C 46.695312 27.585938 46.695312 27.207031 46.558594 26.828125 C 46.007812 26.128906 45.535156 25.367188 45.140625 24.542969 C 44.59375 22.289062 45.164062 20.539062 46.863281 19.292969 Z M 46.863281 19.292969 "/>
<path style=" stroke:none;fill-rule:evenodd;fill:rgb(99.607843%,98.823529%,100%);fill-opacity:1;" d="M 52.125 26.597656 C 56.144531 26.84375 57.394531 29.050781 55.871094 33.21875 C 54.214844 34.847656 52.460938 35 50.605469 33.675781 C 48.742188 30.65625 49.246094 28.296875 52.125 26.597656 Z M 52.125 26.597656 "/>
<path style=" stroke:none;fill-rule:evenodd;fill:rgb(82.352942%,48.235294%,100%);fill-opacity:1;" d="M 52.734375 28.425781 C 53.273438 28.324219 53.507812 28.554688 53.441406 29.109375 C 52.714844 29.46875 52.476562 29.238281 52.734375 28.425781 Z M 52.734375 28.425781 "/>
<path style=" stroke:none;fill-rule:evenodd;fill:rgb(81.568629%,45.882353%,100%);fill-opacity:1;" d="M 52.734375 30.023438 C 53 29.984375 53.238281 30.058594 53.441406 30.25 C 53.578125 31.164062 53.578125 32.078125 53.441406 32.992188 C 53.171875 33.296875 52.902344 33.296875 52.632812 32.992188 C 52.476562 31.980469 52.507812 30.992188 52.734375 30.023438 Z M 52.734375 30.023438 "/>
</g>
</svg>
