<?xml version="1.0" encoding="UTF-8"?>
<svg xmlns="http://www.w3.org/2000/svg" xmlns:xlink="http://www.w3.org/1999/xlink" width="100px" height="100px" viewBox="0 0 100 100" version="1.1">
<g id="surface1">
<path style=" stroke:none;fill-rule:evenodd;fill:rgb(97.647059%,98.823529%,98.823529%);fill-opacity:1;" d="M -0.101562 -0.113281 C 1.59375 -0.113281 3.285156 -0.113281 4.980469 -0.113281 C 4.980469 -0.0390625 4.980469 0.0390625 4.980469 0.113281 C 2.472656 0.945312 0.847656 2.757812 0.101562 5.554688 C 0.0351562 5.554688 -0.0351562 5.554688 -0.101562 5.554688 C -0.101562 3.664062 -0.101562 1.777344 -0.101562 -0.113281 Z M -0.101562 -0.113281 "/>
<path style=" stroke:none;fill-rule:evenodd;fill:rgb(85.490197%,91.37255%,91.37255%);fill-opacity:1;" d="M 4.980469 0.113281 C 4.980469 0.0390625 4.980469 -0.0390625 4.980469 -0.113281 C 34.925781 -0.113281 64.871094 -0.113281 94.816406 -0.113281 C 94.816406 -0.0390625 94.816406 0.0390625 94.816406 0.113281 C 64.84375 0.125 34.898438 0.125 4.980469 0.113281 Z M 4.980469 0.113281 "/>
<path style=" stroke:none;fill-rule:evenodd;fill:rgb(98.431373%,98.823529%,98.823529%);fill-opacity:1;" d="M 94.816406 -0.113281 C 96.511719 -0.113281 98.203125 -0.113281 99.898438 -0.113281 C 99.898438 1.851562 99.898438 3.816406 99.898438 5.78125 C 99.832031 5.78125 99.761719 5.78125 99.695312 5.78125 C 98.964844 2.925781 97.335938 1.035156 94.816406 0.113281 C 94.816406 0.0390625 94.816406 -0.0390625 94.816406 -0.113281 Z M 94.816406 -0.113281 "/>
<path style=" stroke:none;fill-rule:evenodd;fill:rgb(3.137255%,64.705884%,60.392159%);fill-opacity:1;" d="M 4.980469 0.113281 C 34.898438 0.125 64.84375 0.125 94.816406 0.113281 C 97.335938 1.035156 98.964844 2.925781 99.695312 5.78125 C 99.757812 9.429688 99.691406 13.054688 99.492188 16.667969 C 94.746094 19.199219 89.800781 21.128906 84.65625 22.449219 C 78.3125 24.25 71.910156 25.421875 65.445312 25.964844 C 64.882812 16.410156 60.445312 10.554688 52.132812 8.390625 C 44.574219 7.636719 39.054688 11 35.570312 18.480469 C 34.878906 20.601562 34.46875 22.796875 34.347656 25.058594 C 34.328125 25.539062 34.160156 25.914062 33.839844 26.191406 C 26.03125 25.09375 18.378906 23.46875 10.875 21.316406 C 7.320312 20.082031 3.867188 18.609375 0.507812 16.894531 C 0.449219 16.714844 0.347656 16.5625 0.203125 16.441406 C 0.101562 12.8125 0.0664062 9.183594 0.101562 5.554688 C 0.847656 2.757812 2.472656 0.945312 4.980469 0.113281 Z M 4.980469 0.113281 "/>
<path style=" stroke:none;fill-rule:evenodd;fill:rgb(71.372551%,71.764708%,71.764708%);fill-opacity:1;" d="M 99.695312 5.78125 C 99.761719 5.78125 99.832031 5.78125 99.898438 5.78125 C 99.898438 9.410156 99.898438 13.039062 99.898438 16.667969 C 99.761719 16.667969 99.628906 16.667969 99.492188 16.667969 C 99.691406 13.054688 99.757812 9.429688 99.695312 5.78125 Z M 99.695312 5.78125 "/>
<path style=" stroke:none;fill-rule:evenodd;fill:rgb(99.607843%,99.607843%,99.607843%);fill-opacity:1;" d="M 99.492188 16.667969 C 99.628906 16.667969 99.761719 16.667969 99.898438 16.667969 C 99.898438 44.40625 99.898438 72.148438 99.898438 99.886719 C 66.566406 99.886719 33.230469 99.886719 -0.101562 99.886719 C -0.101562 92.78125 -0.101562 85.675781 -0.101562 78.570312 C 0.0546875 78.746094 0.15625 78.972656 0.203125 79.25 C 0.238281 58.425781 0.339844 37.640625 0.507812 16.894531 C 3.867188 18.609375 7.320312 20.082031 10.875 21.316406 C 18.378906 23.46875 26.03125 25.09375 33.839844 26.191406 C 34.160156 25.914062 34.328125 25.539062 34.347656 25.058594 C 34.46875 22.796875 34.878906 20.601562 35.570312 18.480469 C 39.054688 11 44.574219 7.636719 52.132812 8.390625 C 60.445312 10.554688 64.882812 16.410156 65.445312 25.964844 C 71.910156 25.421875 78.3125 24.25 84.65625 22.449219 C 89.800781 21.128906 94.746094 19.199219 99.492188 16.667969 Z M 99.492188 16.667969 "/>
<path style=" stroke:none;fill-rule:evenodd;fill:rgb(5.098039%,64.705884%,60.392159%);fill-opacity:1;" d="M 47.257812 8.957031 C 54.898438 8.289062 60.421875 11.765625 63.820312 19.386719 C 65.996094 27.304688 64.265625 33.917969 58.636719 39.230469 C 53.09375 43.253906 47.472656 43.441406 41.769531 39.796875 C 34.722656 33.820312 33.0625 26.335938 36.789062 17.347656 C 39.328125 13.078125 42.816406 10.28125 47.257812 8.957031 Z M 47.257812 8.957031 "/>
<path style=" stroke:none;fill-rule:evenodd;fill:rgb(97.254902%,98.823529%,98.823529%);fill-opacity:1;" d="M 49.289062 14.851562 C 51.21875 14.550781 52.132812 15.457031 52.03125 17.574219 C 50.976562 19.457031 49.757812 19.609375 48.375 18.027344 C 47.921875 16.695312 48.226562 15.636719 49.289062 14.851562 Z M 49.289062 14.851562 "/>
<path style=" stroke:none;fill-rule:evenodd;fill:rgb(96.078432%,96.078432%,96.078432%);fill-opacity:1;" d="M -0.101562 5.554688 C -0.0351562 5.554688 0.0351562 5.554688 0.101562 5.554688 C 0.0664062 9.183594 0.101562 12.8125 0.203125 16.441406 C 0.347656 16.5625 0.449219 16.714844 0.507812 16.894531 C 0.339844 37.640625 0.238281 58.425781 0.203125 79.25 C 0.15625 78.972656 0.0546875 78.746094 -0.101562 78.570312 C -0.101562 54.234375 -0.101562 29.894531 -0.101562 5.554688 Z M -0.101562 5.554688 "/>
<path style=" stroke:none;fill-rule:evenodd;fill:rgb(97.254902%,98.823529%,98.823529%);fill-opacity:1;" d="M 45.222656 20.066406 C 45.5625 20.066406 45.902344 20.066406 46.238281 20.066406 C 45.796875 21.65625 45.257812 23.207031 44.613281 24.714844 C 43.496094 24.980469 43.054688 24.488281 43.292969 23.242188 C 43.589844 21.894531 44.234375 20.835938 45.222656 20.066406 Z M 45.222656 20.066406 "/>
<path style=" stroke:none;fill-rule:evenodd;fill:rgb(98.039216%,99.215686%,99.215686%);fill-opacity:1;" d="M 53.964844 25.738281 C 54.148438 25.578125 54.214844 25.347656 54.167969 25.058594 C 53.21875 25.058594 52.269531 25.058594 51.320312 25.058594 C 50.785156 24.472656 50.34375 23.792969 50 23.015625 C 49.761719 23.660156 49.527344 24.300781 49.289062 24.941406 C 49.996094 25.886719 50.707031 26.832031 51.421875 27.777344 C 51.683594 29.351562 51.785156 30.9375 51.726562 32.539062 C 51.320312 32.539062 50.914062 32.539062 50.507812 32.539062 C 50.425781 31.226562 50.222656 29.941406 49.898438 28.683594 C 48.453125 27.789062 47.167969 26.691406 46.035156 25.398438 C 46.628906 23.960938 47.136719 22.488281 47.5625 20.976562 C 47.824219 20.640625 48.164062 20.488281 48.578125 20.523438 C 49.222656 20.621094 49.867188 20.734375 50.507812 20.863281 C 51.199219 21.644531 51.742188 22.550781 52.132812 23.582031 C 52.808594 23.695312 53.484375 23.734375 54.167969 23.695312 C 54.222656 22.859375 54.324219 22.027344 54.472656 21.203125 C 54.824219 20.726562 55.230469 20.648438 55.691406 20.976562 C 55.550781 24.78125 55.175781 28.558594 54.574219 32.3125 C 53.695312 32.785156 53.289062 32.480469 53.355469 31.40625 C 53.625 29.523438 53.828125 27.632812 53.964844 25.738281 Z M 53.964844 25.738281 "/>
<path style=" stroke:none;fill-rule:evenodd;fill:rgb(52.941179%,82.745099%,80.784315%);fill-opacity:1;" d="M 51.320312 25.058594 C 52.269531 25.058594 53.21875 25.058594 54.167969 25.058594 C 54.214844 25.347656 54.148438 25.578125 53.964844 25.738281 C 53.136719 25.367188 52.253906 25.140625 51.320312 25.058594 Z M 51.320312 25.058594 "/>
<path style=" stroke:none;fill-rule:evenodd;fill:rgb(97.647059%,99.215686%,98.823529%);fill-opacity:1;" d="M 45.222656 27.324219 C 45.933594 27.605469 46.542969 28.0625 47.054688 28.683594 C 46.589844 29.984375 46.046875 31.230469 45.425781 32.425781 C 44.890625 32.539062 44.347656 32.578125 43.800781 32.539062 C 44.234375 30.785156 44.707031 29.046875 45.222656 27.324219 Z M 45.222656 27.324219 "/>
</g>
</svg>
