<?xml version="1.0" encoding="UTF-8"?>
<svg xmlns="http://www.w3.org/2000/svg" width="50" height="50" viewBox="0 0 50 50">
  <path d="M39.406 -0.047C40.188 -0.047 40.969 -0.047 41.75 -0.047C44.883 0.594 47.016 2.418 48.145 5.422C49.121 9.566 47.805 12.742 44.188 14.941C39.852 16.648 36.336 15.621 33.641 11.867C28.141 15.137 22.641 18.406 17.141 21.68C16.961 21.766 16.828 21.898 16.75 22.07C17.398 23.992 17.398 25.91 16.75 27.832C16.762 27.906 16.793 27.973 16.844 28.027C22.457 31.344 28.055 34.68 33.641 38.039C36.094 34.535 39.383 33.41 43.508 34.668C47.07 36.348 48.715 39.164 48.438 43.117C47.73 46.898 45.5 49.176 41.75 49.953C40.969 49.953 40.188 49.953 39.406 49.953C34.75 48.805 32.469 45.812 32.57 40.969C26.758 37.461 20.93 33.977 15.086 30.516C12.137 33.129 8.879 33.57 5.32 31.836C2.223 29.816 0.969 26.969 1.563 23.289C2.391 20.051 4.426 18.016 7.664 17.188C10.516 16.68 12.992 17.41 15.086 19.383C20.93 15.926 26.758 12.441 32.57 8.938C32.469 4.09 34.75 1.098 39.406 -0.047ZM39.602 2.977C41.852 2.73 43.594 3.543 44.824 5.422C46 7.984 45.496 10.148 43.313 11.914C40.844 13.301 38.645 12.957 36.719 10.891C35.391 8.926 35.359 6.938 36.621 4.93C37.398 3.949 38.391 3.297 39.602 2.977ZM8.445 20.07C10.566 19.852 12.242 20.602 13.477 22.313C14.828 25 14.324 27.262 11.961 29.102C9.34 30.445 7.109 29.973 5.273 27.688C3.832 25.055 4.273 22.793 6.594 20.898C7.172 20.516 7.793 20.238 8.445 20.07ZM39.797 37.156C42.758 37.047 44.629 38.414 45.41 41.258C45.586 44.141 44.301 46.012 41.555 46.875C38.57 47.145 36.633 45.859 35.742 43.016C35.508 39.949 36.86 37.996 39.797 37.156Z"/>
</svg>
