<svg
  xmlns="http://www.w3.org/2000/svg"
  viewBox="0 0 50 50"
  width="50"
  height="50"
>
  <path
    d="M 22.703125 -0.046875 C 24.203125 -0.046875 25.699219 -0.046875 27.195312 -0.046875 C 28.066406 0.0820312 28.945312 0.230469 29.835938 0.390625 C 30.246094 0.492188 30.589844 0.703125 30.859375 1.023438 C 31.570312 2.878906 32.269531 4.734375 32.960938 6.59375 C 34.394531 7.21875 35.730469 8 36.960938 8.9375 C 38.652344 8.582031 40.34375 8.242188 42.039062 7.910156 C 42.65625 7.78125 43.210938 7.910156 43.703125 8.300781 C 46.0625 10.957031 47.757812 14 48.78125 17.429688 C 48.71875 17.859375 48.570312 18.25 48.339844 18.601562 C 47.140625 19.945312 45.953125 21.296875 44.773438 22.65625 C 45.035156 24.1875 45.035156 25.714844 44.773438 27.246094 C 45.953125 28.605469 47.140625 29.957031 48.339844 31.296875 C 48.570312 31.652344 48.71875 32.042969 48.78125 32.46875 C 47.757812 35.902344 46.0625 38.945312 43.703125 41.601562 C 43.34375 41.882812 42.9375 42.03125 42.480469 42.039062 C 40.601562 41.683594 38.730469 41.34375 36.867188 41.015625 C 35.59375 41.910156 34.261719 42.710938 32.859375 43.40625 C 32.25 45.128906 31.648438 46.855469 31.054688 48.585938 C 30.789062 49.078125 30.382812 49.386719 29.835938 49.511719 C 28.914062 49.683594 28 49.828125 27.101562 49.953125 C 25.667969 49.953125 24.234375 49.953125 22.804688 49.953125 C 21.902344 49.828125 20.992188 49.683594 20.070312 49.511719 C 19.519531 49.386719 19.113281 49.078125 18.847656 48.585938 C 18.253906 46.855469 17.652344 45.128906 17.039062 43.40625 C 15.640625 42.710938 14.308594 41.910156 13.039062 41.015625 C 11.171875 41.34375 9.300781 41.683594 7.421875 42.039062 C 6.964844 42.03125 6.558594 41.882812 6.203125 41.601562 C 3.851562 38.957031 2.160156 35.929688 1.125 32.519531 C 1.148438 32.066406 1.292969 31.660156 1.5625 31.296875 C 2.761719 29.957031 3.949219 28.605469 5.125 27.246094 C 4.867188 25.714844 4.867188 24.1875 5.125 22.65625 C 3.804688 21.171875 2.519531 19.65625 1.269531 18.117188 C 1.21875 17.871094 1.171875 17.625 1.125 17.382812 C 2.160156 13.972656 3.851562 10.945312 6.203125 8.300781 C 6.691406 7.910156 7.246094 7.78125 7.859375 7.910156 C 9.5625 8.222656 11.253906 8.5625 12.9375 8.9375 C 14.195312 8.03125 15.527344 7.25 16.945312 6.59375 C 17.632812 4.734375 18.332031 2.878906 19.042969 1.023438 C 19.3125 0.703125 19.65625 0.492188 20.070312 0.390625 C 20.957031 0.230469 21.835938 0.0820312 22.703125 -0.046875 Z"
    fill="#000"
  />
  <path
    d="M 24.070312 18.117188 C 26.996094 17.910156 29.257812 19.015625 30.859375 21.4375 C 32.433594 24.632812 31.996094 27.515625 29.539062 30.078125 C 27.328125 31.851562 24.886719 32.242188 22.21875 31.25 C 18.898438 29.511719 17.613281 26.792969 18.359375 23.09375 C 19.292969 20.3125 21.195312 18.652344 24.070312 18.117188 Z"
    fill="#FFF"
  />
</svg>

