<?xml version="1.0" encoding="UTF-8"?>
<svg xmlns="http://www.w3.org/2000/svg" xmlns:xlink="http://www.w3.org/1999/xlink" width="50px" height="50px" viewBox="0 0 50 50" version="1.1">
<g id="surface1">
<path style=" stroke:none;fill-rule:evenodd;fill:rgb(100%,99.215686%,99.607843%);fill-opacity:1;" d="M -0.179688 -0.175781 C 16.488281 -0.175781 33.152344 -0.175781 49.820312 -0.175781 C 49.820312 16.488281 49.820312 33.15625 49.820312 49.824219 C 33.152344 49.824219 16.488281 49.824219 -0.179688 49.824219 C -0.179688 33.15625 -0.179688 16.488281 -0.179688 -0.175781 Z M -0.179688 -0.175781 "/>
<path style=" stroke:none;fill-rule:evenodd;fill:rgb(100%,32.941177%,54.509807%);fill-opacity:1;" d="M 21.042969 0.886719 C 36.046875 0.324219 45.335938 7.179688 48.921875 21.453125 C 49.871094 34.089844 44.476562 42.839844 32.734375 47.695312 C 20.476562 51.152344 10.761719 47.726562 3.597656 37.410156 C -2.847656 24 -0.03125 12.949219 12.050781 4.253906 C 14.914062 2.664062 17.914062 1.542969 21.042969 0.886719 Z M 21.042969 0.886719 "/>
<path style=" stroke:none;fill-rule:evenodd;fill:rgb(100%,98.823529%,99.215686%);fill-opacity:1;" d="M 15.648438 10.105469 C 19.605469 10.046875 23.5625 10.105469 27.519531 10.285156 C 27.8125 12.796875 27.992188 15.339844 28.058594 17.90625 C 28.339844 19 29 19.769531 30.035156 20.210938 C 32.675781 20.332031 35.3125 20.449219 37.949219 20.566406 C 38.128906 20.746094 38.308594 20.921875 38.488281 21.097656 C 38.730469 26.183594 38.730469 31.265625 38.488281 36.347656 C 38.242188 37.304688 37.703125 38.070312 36.871094 38.652344 C 29.949219 39.234375 22.992188 39.351562 16.007812 39.007812 C 15.242188 38.609375 14.582031 38.078125 14.027344 37.410156 C 13.4375 29.167969 13.316406 20.894531 13.667969 12.589844 C 14.164062 11.609375 14.820312 10.78125 15.648438 10.105469 Z M 15.648438 10.105469 "/>
<path style=" stroke:none;fill-rule:evenodd;fill:rgb(100%,97.254902%,98.039216%);fill-opacity:1;" d="M 31.835938 10.105469 C 32.214844 10.054688 32.574219 10.113281 32.914062 10.285156 C 34.773438 12.117188 36.628906 13.949219 38.488281 15.78125 C 38.734375 16.234375 38.675781 16.648438 38.308594 17.019531 C 32.371094 18.199219 30.210938 15.894531 31.835938 10.105469 Z M 31.835938 10.105469 "/>
<path style=" stroke:none;fill-rule:evenodd;fill:rgb(100%,34.117648%,54.901963%);fill-opacity:1;" d="M 20.683594 18.972656 C 26.023438 18.625 28.363281 21.105469 27.699219 26.417969 C 29.976562 28.664062 32.253906 30.910156 34.53125 33.15625 C 34.753906 35.386719 33.734375 36.273438 31.476562 35.816406 C 29.195312 33.570312 26.917969 31.324219 24.640625 29.078125 C 21.132812 29.742188 18.675781 28.503906 17.265625 25.355469 C 16.945312 24.21875 17.066406 23.152344 17.625 22.164062 C 18.722656 23.363281 19.921875 24.425781 21.222656 25.355469 C 22.289062 24.71875 23.1875 23.890625 23.921875 22.871094 C 22.6875 21.660156 21.609375 20.359375 20.683594 18.972656 Z M 20.683594 18.972656 "/>
</g>
</svg>
