<?xml version="1.0" encoding="UTF-8"?>
<svg xmlns="http://www.w3.org/2000/svg" xmlns:xlink="http://www.w3.org/1999/xlink" width="50px" height="50px" viewBox="0 0 50 50" version="1.1">
  <g id="surface1">
    <path
      fill="rgb(253,254,254)"
      d="M-0.179688 -0.175781 C16.488281 -0.175781 33.15625 -0.175781 49.820312 -0.175781 C49.820312 16.492188 49.820312 33.15625 49.820312 49.824219 C33.15625 49.824219 16.488281 49.824219 -0.179688 49.824219 C-0.179688 33.15625 -0.179688 16.492188 -0.179688 -0.175781 Z M-0.179688 -0.175781"
    />
    <path
      fill="rgb(15,166,155)"
      d="M20.894531 1.230469 C35.785156 0.671875 45.011719 7.480469 48.570312 21.65625 C49.34375 35.4375 43.09375 44.417969 29.820312 48.589844 C17.183594 50.433594 7.957031 45.796875 2.144531 34.683594 C-2.234375 22.167969 1.039062 12.132812 11.964844 4.578125 C14.808594 3 17.785156 1.882812 20.894531 1.230469 Z M20.894531 1.230469"
    />
    <path
      fill="rgb(250,253,253)"
      d="M23.75 8.625 C27.269531 8.054688 29.113281 9.464844 29.285156 12.851562 C28.058594 15.421875 26.09375 16.183594 23.394531 15.140625 C20.5 12.832031 20.617188 10.660156 23.75 8.625 Z M23.75 8.625"
    />
    <path
      fill="rgb(248,252,252)"
      d="M15.535156 17.078125 C16.289062 16.972656 17 17.089844 17.679688 17.429688 C16.519531 19.855469 15.332031 22.261719 14.105469 24.648438 C12.570312 25.191406 11.617188 24.71875 11.25 23.238281 C11.796875 20.539062 13.226562 18.484375 15.535156 17.078125 Z M15.535156 17.078125"
    />
    <path
      fill="rgb(251,253,253)"
      d="M20.894531 17.78125 C22.828125 17.902344 24.730469 18.195312 26.605469 18.660156 C27.648438 20.011719 28.601562 21.417969 29.464844 22.886719 C30.886719 23.0625 32.316406 23.121094 33.75 23.0625 C33.832031 21.628906 34.070312 20.21875 34.464844 18.839844 C36.242188 18.023438 37.074219 18.554688 36.964844 20.421875 C36.308594 25.410156 35.65625 30.398438 35 35.386719 C34.902344 37.128906 34.007812 37.773438 32.320312 37.324219 C32.109375 36.949219 31.988281 36.539062 31.964844 36.089844 C32.570312 32.585938 33.046875 29.066406 33.394531 25.527344 C31.484375 25.585938 29.578125 25.527344 27.679688 25.351562 C26.777344 24.285156 25.941406 23.171875 25.179688 22.007812 C24.4375 23.105469 24.023438 24.277344 23.929688 25.527344 C25.355469 26.9375 26.785156 28.34375 28.214844 29.753906 C28.664062 32.207031 28.78125 34.671875 28.570312 37.148438 C27.808594 37.59375 27.035156 37.59375 26.25 37.148438 C25.894531 35.285156 25.597656 33.40625 25.355469 31.515625 C22.738281 29.871094 20.117188 28.226562 17.5 26.585938 C18.097656 23.46875 19.226562 20.535156 20.894531 17.78125 Z M20.894531 17.78125"
    />
    <path
      fill="rgb(251,253,253)"
      d="M15.535156 28.695312 C16.855469 29.347656 18.042969 30.167969 19.105469 31.160156 C18.09375 33.15625 17.082031 35.152344 16.070312 37.148438 C14.980469 37.484375 13.847656 37.601562 12.679688 37.5 C13.484375 34.523438 14.4375 31.589844 15.535156 28.695312 Z M15.535156 28.695312"
    />
  </g>
</svg>
