<?xml version="1.0" encoding="UTF-8"?>
<svg xmlns="http://www.w3.org/2000/svg" xmlns:xlink="http://www.w3.org/1999/xlink" width="50px" height="50px" viewBox="0 0 50 50" version="1.1">
<g id="surface1">
<path style=" stroke:none;fill-rule:evenodd;fill:rgb(99.607843%,99.215686%,100%);fill-opacity:1;" d="M -0.179688 -0.175781 C 16.488281 -0.175781 33.15625 -0.175781 49.820312 -0.175781 C 49.820312 16.488281 49.820312 33.15625 49.820312 49.824219 C 33.15625 49.824219 16.488281 49.824219 -0.179688 49.824219 C -0.179688 33.15625 -0.179688 16.488281 -0.179688 -0.175781 Z M -0.179688 -0.175781 "/>
<path style=" stroke:none;fill-rule:evenodd;fill:rgb(79.607844%,40.000001%,100%);fill-opacity:1;" d="M 21.25 0.53125 C 36.144531 -0.03125 45.371094 6.824219 48.929688 21.097656 C 49.871094 33.738281 44.515625 42.484375 32.855469 47.339844 C 20.6875 50.800781 11.042969 47.371094 3.929688 37.058594 C -2.472656 23.644531 0.328125 12.59375 12.320312 3.902344 C 15.164062 2.3125 18.140625 1.1875 21.25 0.53125 Z M 21.25 0.53125 "/>
<path style=" stroke:none;fill-rule:evenodd;fill:rgb(99.607843%,99.215686%,100%);fill-opacity:1;" d="M 20.179688 9.75 C 26.535156 9.507812 28.855469 12.460938 27.144531 18.617188 C 26.207031 20.136719 25.136719 21.554688 23.929688 22.871094 C 22.925781 24.769531 22.570312 26.777344 22.855469 28.902344 C 23.335938 30.550781 23.988281 32.089844 24.820312 33.511719 C 21.011719 33.570312 17.199219 33.511719 13.394531 33.332031 C 11.707031 30.675781 12.066406 28.308594 14.464844 26.242188 C 16.199219 25.226562 17.925781 24.21875 19.644531 23.226562 C 19.882812 22.636719 19.882812 22.046875 19.644531 21.453125 C 18.671875 20.371094 17.835938 19.1875 17.144531 17.90625 C 16.171875 14.40625 17.183594 11.6875 20.179688 9.75 Z M 20.179688 9.75 "/>
<path style=" stroke:none;fill-rule:evenodd;fill:rgb(99.607843%,98.823529%,100%);fill-opacity:1;" d="M 29.464844 21.097656 C 36.558594 21.476562 38.757812 24.90625 36.070312 31.382812 C 33.152344 33.910156 30.058594 34.144531 26.785156 32.09375 C 23.496094 27.402344 24.386719 23.738281 29.464844 21.097656 Z M 29.464844 21.097656 "/>
<path style=" stroke:none;fill-rule:evenodd;fill:rgb(82.352942%,48.235294%,100%);fill-opacity:1;" d="M 30.535156 23.9375 C 31.488281 23.78125 31.90625 24.136719 31.785156 25 C 30.5 25.554688 30.085938 25.199219 30.535156 23.9375 Z M 30.535156 23.9375 "/>
<path style=" stroke:none;fill-rule:evenodd;fill:rgb(81.568629%,45.882353%,100%);fill-opacity:1;" d="M 30.535156 26.417969 C 31.007812 26.359375 31.425781 26.476562 31.785156 26.773438 C 32.023438 28.191406 32.023438 29.609375 31.785156 31.027344 C 31.308594 31.5 30.832031 31.5 30.355469 31.027344 C 30.082031 29.460938 30.140625 27.925781 30.535156 26.417969 Z M 30.535156 26.417969 "/>
</g>
</svg>
